{"glyphs":{"0":{"ha":865,"x_min":71,"x_max":795,"o":"m 79 296 q 75 332 79 296 q 71 471 71 368 q 79 645 71 573 q 112 779 88 718 q 176 876 135 840 q 280 932 216 912 q 433 951 343 951 q 586 932 522 951 q 690 876 649 912 q 754 779 730 840 q 786 645 777 718 q 795 471 795 573 q 786 296 795 368 q 754 163 777 224 q 690 65 730 102 q 586 9 649 29 q 433 -10 522 -10 q 280 9 343 -10 q 176 65 216 29 q 112 163 135 102 q 79 296 88 224 m 323 471 q 324 392 323 418 q 328 327 325 366 q 337 271 330 289 q 356 232 345 252 q 387 205 368 212 q 433 197 406 197 q 478 205 459 197 q 509 233 497 212 q 528 271 521 253 q 537 327 534 288 q 541 392 540 366 q 541 471 541 417 q 541 550 541 524 q 537 614 540 576 q 527 671 534 653 q 509 710 520 690 q 478 738 497 730 q 433 745 459 745 q 403 743 416 745 q 380 732 390 740 q 361 718 370 725 q 348 696 353 710 q 338 671 342 682 q 331 639 334 659 q 327 604 328 618 q 324 563 325 589 q 323 519 323 536 q 323 471 323 502 z "},"1":{"ha":575,"x_min":28,"x_max":478,"o":"m 28 868 q 287 942 178 891 l 478 942 l 478 0 l 227 0 l 227 689 q 39 663 165 674 l 28 868 z "},"2":{"ha":807,"x_min":39,"x_max":732,"o":"m 39 0 q 93 262 74 198 q 189 435 126 374 q 342 529 242 487 q 446 587 415 560 q 477 653 477 614 q 440 722 477 705 q 292 738 404 738 q 80 716 204 738 l 56 916 q 385 951 234 951 q 495 945 446 951 q 589 921 544 939 q 665 875 635 903 q 714 802 696 847 q 732 696 732 757 q 666 476 732 562 q 454 336 600 391 q 356 282 382 309 q 324 218 330 256 l 731 218 l 731 0 l 39 0 z "},"3":{"ha":786,"x_min":43,"x_max":729,"o":"m 43 27 l 71 227 q 319 205 240 205 q 435 223 401 205 q 469 296 469 241 q 393 379 469 370 q 194 391 296 391 l 182 391 l 182 577 q 393 597 275 579 q 444 620 427 602 q 460 674 460 638 q 431 727 460 713 q 346 741 401 741 q 79 718 260 741 l 52 915 q 359 951 234 951 q 468 946 420 951 q 565 923 517 940 q 645 878 613 906 q 696 803 677 850 q 716 692 716 755 q 687 578 716 630 q 597 496 659 526 q 701 421 673 466 q 729 302 729 377 q 704 153 729 214 q 629 56 679 92 q 512 5 578 21 q 355 -10 446 -10 q 318 -9 337 -10 q 285 -8 300 -9 q 251 -5 271 -7 q 220 -2 231 -3 q 188 2 209 -1 q 158 6 166 5 q 128 12 151 7 q 100 16 105 16 q 71 22 96 17 q 43 27 45 26 z "},"4":{"ha":850,"x_min":42,"x_max":802,"o":"m 42 323 q 44 360 42 347 q 64 411 46 374 q 117 492 81 447 l 396 851 q 481 932 444 913 q 571 951 517 951 q 662 915 627 951 q 696 811 696 879 l 696 399 l 802 399 l 802 199 l 696 199 l 696 0 l 453 0 l 453 199 l 195 199 q 77 231 111 199 q 42 323 42 263 m 290 399 l 454 399 l 454 626 l 290 399 z "},"5":{"ha":804,"x_min":50,"x_max":738,"o":"m 50 28 l 77 228 q 326 205 240 205 q 445 228 414 205 q 476 321 476 250 q 434 396 476 377 q 294 416 392 416 q 74 409 201 416 l 111 942 l 718 942 l 718 726 l 328 726 l 321 616 q 368 617 336 617 q 454 614 416 617 q 532 602 492 610 q 601 578 571 593 q 657 540 631 564 q 701 484 684 516 q 728 408 718 452 q 738 309 738 363 q 646 66 738 142 q 372 -10 553 -10 q 50 28 210 -10 z "},"6":{"ha":844,"x_min":64,"x_max":793,"o":"m 64 389 q 73 579 64 500 q 104 724 82 659 q 163 831 127 790 q 259 900 200 872 q 395 940 317 928 q 580 951 473 951 q 722 949 628 951 l 742 756 l 716 756 q 661 756 699 756 q 605 757 624 757 q 535 755 566 757 q 471 749 505 753 q 414 734 437 744 q 370 709 390 724 q 339 671 349 694 q 328 616 328 647 q 436 623 384 623 q 558 615 506 623 q 657 585 611 606 q 731 530 703 564 q 777 441 760 495 q 793 313 793 387 q 775 180 793 237 q 726 87 758 123 q 647 29 695 51 q 545 -2 599 7 q 420 -10 490 -10 q 272 8 334 -10 q 170 59 210 26 q 106 143 130 92 q 74 253 83 195 q 64 389 64 311 m 314 365 q 316 314 314 336 q 325 269 318 292 q 341 231 331 245 q 371 207 352 216 q 416 197 390 197 q 516 223 490 197 q 542 317 542 248 q 509 404 542 380 q 414 429 477 429 q 316 422 362 429 q 314 365 314 395 z "},"7":{"ha":747,"x_min":39,"x_max":726,"o":"m 39 722 l 39 942 l 583 942 q 689 911 652 942 q 726 827 726 881 q 709 756 726 798 l 371 0 l 92 0 l 446 722 l 39 722 z "},"8":{"ha":838,"x_min":56,"x_max":783,"o":"m 56 273 q 65 345 56 313 q 96 402 75 377 q 139 446 117 428 q 196 487 161 465 q 102 569 137 519 q 68 703 68 618 q 420 951 68 951 q 772 703 772 951 q 744 577 772 623 q 644 491 716 532 q 699 453 676 471 q 742 408 722 434 q 773 349 763 382 q 783 275 783 315 q 764 155 783 206 q 714 73 745 104 q 634 22 682 41 q 535 -3 586 3 q 420 -10 485 -10 q 271 4 335 -10 q 157 50 208 18 q 81 138 107 81 q 56 273 56 194 m 302 277 q 333 211 302 230 q 420 193 363 193 q 536 277 536 193 q 526 337 536 317 q 481 372 515 358 q 378 394 447 385 q 302 277 302 371 m 307 678 q 312 641 307 656 q 333 613 317 627 q 380 592 349 600 q 462 582 412 585 q 518 616 500 595 q 536 678 536 637 q 507 737 536 720 q 420 754 478 754 q 336 738 365 754 q 307 678 307 721 z "},"9":{"ha":846,"x_min":51,"x_max":779,"o":"m 51 629 q 68 762 51 705 q 117 854 86 819 q 197 912 149 890 q 299 943 245 935 q 424 951 353 951 q 572 933 509 951 q 674 882 634 915 q 737 799 713 850 q 769 689 760 747 q 779 553 779 631 q 770 362 779 441 q 739 217 762 283 q 680 111 716 152 q 585 41 644 70 q 449 1 526 13 q 264 -10 371 -10 q 121 -7 239 -10 l 102 186 l 127 186 q 182 185 145 186 q 239 185 220 185 q 308 187 278 185 q 372 193 338 189 q 430 208 406 198 q 474 233 454 218 q 505 271 494 248 q 515 326 515 295 q 408 319 460 319 q 285 327 338 319 q 187 357 233 336 q 112 412 141 378 q 67 501 83 447 q 51 629 51 555 m 302 625 q 334 538 302 562 q 429 513 367 513 q 527 520 481 513 q 529 577 529 547 q 525 641 529 614 q 512 692 522 667 q 480 731 502 718 q 427 744 459 744 q 328 719 353 744 q 302 625 302 694 z "}," ":{"ha":333,"x_min":0,"x_max":0,"o":""},"!":{"ha":456,"x_min":87,"x_max":369,"o":"m 87 971 l 369 971 l 335 287 l 121 287 l 87 971 m 121 18 q 106 33 121 18 q 90 113 90 47 q 121 208 90 180 q 228 237 152 237 q 335 208 304 237 q 366 113 366 180 q 335 18 366 47 q 228 -10 304 -10 q 121 18 152 -10 z "},"\"":{"ha":637,"x_min":64,"x_max":573,"o":"m 64 1029 l 271 1029 l 256 591 l 79 591 l 64 1029 m 366 1029 l 573 1029 l 558 591 l 382 591 l 366 1029 z "},"#":{"ha":846,"x_min":50,"x_max":796,"o":"m 50 267 l 50 425 l 205 425 l 224 548 l 86 548 l 86 706 l 247 706 l 287 971 l 448 971 l 407 706 l 517 706 l 558 971 l 718 971 l 677 706 l 796 706 l 796 548 l 654 548 l 635 425 l 757 425 l 757 267 l 611 267 l 570 0 l 410 0 l 450 267 l 340 267 l 300 0 l 140 0 l 180 267 l 50 267 m 365 425 l 475 425 l 494 548 l 384 548 l 365 425 z "},"$":{"ha":755,"x_min":47,"x_max":701,"o":"m 47 24 l 72 221 q 328 197 224 197 q 416 215 389 197 q 444 275 444 233 q 418 331 444 311 q 324 372 392 351 q 231 407 269 390 q 156 447 192 423 q 99 501 120 471 q 65 573 77 531 q 52 668 52 614 q 113 864 52 798 q 296 945 174 929 l 296 1076 l 465 1076 l 465 949 q 691 916 588 942 l 668 724 q 446 749 534 749 q 394 747 414 749 q 350 739 374 745 q 315 719 327 733 q 303 682 303 704 q 331 626 303 642 q 441 587 358 610 q 645 480 589 548 q 701 286 701 413 q 640 87 701 157 q 459 -1 579 18 l 459 -134 l 289 -134 l 289 -9 q 47 24 168 -3 z "},"%":{"ha":1228,"x_min":34,"x_max":1180,"o":"m 43 556 q 38 582 43 556 q 34 685 34 607 q 43 813 34 763 q 76 903 52 864 q 144 959 100 941 q 258 976 189 976 q 371 959 326 976 q 439 903 415 941 q 472 813 463 864 q 481 685 481 763 q 472 556 481 607 q 439 468 463 506 q 371 412 415 429 q 258 395 326 395 q 144 412 189 395 q 76 468 100 429 q 43 556 52 506 m 200 685 q 200 673 200 685 q 200 650 200 661 q 201 619 200 638 q 203 591 201 600 q 207 569 205 582 q 214 549 210 555 q 224 536 218 543 q 239 527 231 530 q 258 525 247 525 q 282 529 272 525 q 298 545 292 534 q 308 568 304 557 q 314 601 312 579 q 316 639 315 623 q 316 685 316 654 q 316 731 316 715 q 314 769 315 747 q 308 802 312 791 q 298 825 304 814 q 282 841 292 836 q 258 846 272 846 q 239 843 247 846 q 224 834 231 841 q 214 821 218 827 q 207 801 210 814 q 203 779 205 788 q 201 751 201 770 q 200 720 200 732 q 200 685 200 709 m 243 -20 l 812 991 l 972 991 l 401 -20 l 243 -20 m 742 157 q 738 182 742 157 q 733 286 733 208 q 742 414 733 363 q 775 503 751 465 q 843 559 799 542 q 956 576 888 576 q 1069 559 1025 576 q 1138 503 1114 542 q 1171 414 1162 465 q 1180 286 1180 363 q 1171 157 1180 208 q 1138 68 1162 106 q 1069 13 1114 30 q 956 -5 1025 -5 q 843 13 888 -5 q 775 68 799 30 q 742 157 751 106 m 899 286 q 899 274 899 286 q 899 250 899 262 q 899 220 899 239 q 902 192 900 201 q 906 169 903 182 q 912 150 908 156 q 923 137 917 144 q 937 128 929 130 q 956 125 945 125 q 981 130 970 125 q 997 146 991 134 q 1007 169 1003 157 q 1012 202 1010 180 q 1014 239 1014 224 q 1015 286 1015 255 q 1014 332 1015 316 q 1012 370 1014 348 q 1007 403 1010 392 q 997 426 1003 414 q 981 442 991 437 q 956 446 970 446 q 937 444 945 446 q 923 435 929 441 q 912 421 917 428 q 906 402 908 415 q 902 379 903 389 q 899 351 900 370 q 899 321 899 332 q 899 286 899 309 z "},"&":{"ha":979,"x_min":41,"x_max":968,"o":"m 41 288 q 82 440 41 380 q 201 536 123 499 q 179 566 184 559 q 162 595 175 573 q 146 633 150 618 q 137 673 142 648 q 132 728 132 699 q 154 845 132 795 q 215 924 176 895 q 306 967 255 954 q 420 981 357 981 q 504 973 465 981 q 579 947 544 965 q 641 901 615 928 q 682 833 667 874 q 696 741 696 792 q 650 582 696 646 q 533 484 604 518 l 616 397 q 626 463 624 428 l 838 454 q 774 215 825 307 l 968 0 l 667 0 l 625 50 q 525 4 582 19 q 379 -10 467 -10 q 125 64 209 -10 q 41 288 41 138 m 281 281 q 314 208 281 235 q 397 181 347 181 q 489 208 452 181 l 330 383 q 292 338 302 363 q 281 281 281 314 m 359 726 q 402 631 359 673 q 471 727 471 667 q 415 791 471 791 q 359 726 359 791 z "},"'":{"ha":335,"x_min":64,"x_max":271,"o":"m 64 1029 l 271 1029 l 256 591 l 79 591 l 64 1029 z "},"(":{"ha":492,"x_min":59,"x_max":456,"o":"m 59 387 q 313 1013 59 821 l 456 895 q 381 791 412 854 q 334 656 350 728 q 312 519 319 585 q 306 387 306 454 q 456 -119 306 8 l 313 -239 q 59 387 59 -47 z "},")":{"ha":492,"x_min":36,"x_max":433,"o":"m 36 895 l 180 1013 q 303 885 252 958 q 382 730 355 813 q 421 564 410 647 q 433 387 433 481 q 180 -239 433 -48 l 37 -119 q 186 387 186 8 q 180 519 186 454 q 158 656 174 585 q 111 791 142 728 q 36 895 80 854 z "},"*":{"ha":624,"x_min":45,"x_max":579,"o":"m 45 667 l 45 802 l 193 802 l 118 931 l 238 999 l 312 871 l 385 999 l 505 931 l 429 802 l 579 802 l 579 667 l 430 667 l 504 536 l 385 471 l 312 597 l 238 471 l 119 538 l 193 667 l 45 667 z "},"+":{"ha":791,"x_min":51,"x_max":741,"o":"m 51 314 l 51 503 l 299 503 l 299 753 l 491 753 l 491 503 l 741 503 l 741 314 l 491 314 l 491 63 l 299 63 l 299 314 l 51 314 z "},",":{"ha":435,"x_min":28,"x_max":381,"o":"m 28 -177 l 121 242 l 381 242 l 218 -177 l 28 -177 z "},"-":{"ha":545,"x_min":83,"x_max":463,"o":"m 83 278 l 83 460 l 463 460 l 463 278 l 83 278 z "},".":{"ha":403,"x_min":62,"x_max":340,"o":"m 92 18 q 77 32 92 18 q 62 121 62 46 q 92 223 62 195 q 201 250 121 250 q 310 223 281 250 q 340 121 340 195 q 311 18 340 46 q 201 -10 281 -10 q 92 18 121 -10 z "},"/":{"ha":652,"x_min":26,"x_max":620,"o":"m 26 -112 l 420 1005 l 620 1005 l 226 -112 l 26 -112 z "},":":{"ha":452,"x_min":87,"x_max":365,"o":"m 117 18 q 102 32 117 18 q 87 121 87 46 q 117 223 87 195 q 227 250 146 250 q 335 223 306 250 q 365 121 365 195 q 336 18 365 46 q 227 -10 307 -10 q 117 18 146 -10 m 117 470 q 102 484 117 470 q 87 572 87 498 q 117 674 87 647 q 227 702 146 702 q 335 674 306 702 q 365 572 365 647 q 336 470 365 498 q 227 441 307 441 q 117 470 146 441 z "},";":{"ha":463,"x_min":39,"x_max":406,"o":"m 39 -177 l 132 242 l 392 242 l 229 -177 l 39 -177 m 157 470 q 143 484 157 470 q 128 572 128 498 q 157 674 128 647 q 267 702 186 702 q 376 674 346 702 q 406 572 406 646 q 376 470 406 498 q 267 441 347 441 q 157 470 186 441 z "},"<":{"ha":867,"x_min":48,"x_max":771,"o":"m 48 328 l 48 488 l 771 772 l 771 576 l 335 408 l 771 240 l 771 43 l 48 328 z "},"=":{"ha":861,"x_min":86,"x_max":776,"o":"m 86 161 l 86 352 l 776 352 l 776 161 l 86 161 m 86 464 l 86 654 l 776 654 l 776 464 l 86 464 z "},">":{"ha":867,"x_min":96,"x_max":819,"o":"m 96 43 l 96 240 l 532 408 l 96 576 l 96 772 l 819 488 l 819 328 l 96 43 z "},"?":{"ha":768,"x_min":34,"x_max":718,"o":"m 34 943 q 344 981 178 981 q 435 978 395 981 q 515 967 475 975 q 585 944 556 958 q 641 907 614 930 q 683 852 667 884 q 709 775 699 820 q 718 674 718 730 q 703 557 718 606 q 663 481 688 507 q 608 438 638 455 q 548 414 578 422 q 493 399 518 406 q 452 379 468 392 q 435 345 435 366 l 433 287 l 214 287 l 210 382 q 209 414 209 398 q 222 499 209 466 q 257 546 236 532 q 305 567 279 560 q 357 577 331 574 q 404 589 382 581 q 439 618 425 597 q 452 677 452 640 q 424 742 452 722 q 323 762 395 762 q 77 738 184 762 l 34 943 m 216 18 q 201 33 216 18 q 185 113 185 47 q 216 208 185 180 q 323 237 247 237 q 430 208 399 237 q 461 113 461 180 q 430 18 461 47 q 323 -10 399 -10 q 216 18 247 -10 z "},"@":{"ha":1215,"x_min":54,"x_max":1162,"o":"m 54 371 q 91 601 54 505 q 202 755 128 696 q 379 840 276 813 q 622 867 483 867 q 730 854 682 867 q 818 815 778 842 q 879 741 857 789 q 901 625 901 692 l 901 343 q 893 201 901 275 q 769 151 849 170 q 596 132 689 132 q 377 191 444 132 q 309 371 309 250 q 357 534 309 475 q 517 612 406 592 q 715 630 569 621 q 693 695 715 677 q 614 713 671 713 q 457 697 523 713 q 342 642 392 680 q 269 536 293 604 q 244 371 244 469 q 268 208 244 275 q 340 102 292 141 q 453 47 389 64 q 608 30 518 30 q 765 46 699 30 q 879 102 830 63 q 951 207 927 140 q 975 371 975 274 q 956 522 975 461 l 1133 573 q 1162 371 1162 484 q 1023 -5 1162 113 q 608 -124 883 -124 q 193 -5 333 -124 q 54 371 54 113 m 496 378 q 526 298 496 319 q 623 277 555 277 q 669 282 641 277 q 711 296 698 288 q 715 385 715 330 l 715 503 q 583 488 624 499 q 515 452 533 474 q 496 378 496 430 z "},"A":{"ha":944,"x_min":9,"x_max":935,"o":"m 9 0 l 286 802 q 363 940 319 899 q 475 981 408 981 q 586 937 540 981 q 663 802 632 893 l 935 0 l 661 0 l 604 201 l 332 201 l 277 0 l 9 0 m 387 404 l 547 404 l 465 693 l 387 404 z "},"B":{"ha":889,"x_min":96,"x_max":836,"o":"m 96 18 l 96 949 q 425 981 242 981 q 519 977 476 981 q 610 962 562 972 q 694 932 658 952 q 761 882 730 912 q 807 807 791 852 q 823 702 823 761 q 785 580 823 638 q 680 496 747 522 q 793 417 751 472 q 836 274 836 361 q 814 153 836 204 q 757 71 792 101 q 668 21 722 40 q 562 -4 615 3 q 440 -10 508 -10 q 96 18 250 -10 m 353 205 q 437 200 391 200 q 543 220 507 200 q 579 296 579 240 q 572 341 579 322 q 552 370 564 359 q 519 388 539 381 q 480 396 500 394 q 432 398 460 398 l 353 398 l 353 205 m 353 593 l 432 593 q 535 612 500 593 q 571 685 571 631 q 564 724 571 708 q 546 750 557 741 q 514 765 534 760 q 475 771 494 770 q 425 772 455 772 q 353 768 382 772 l 353 593 z "},"C":{"ha":792,"x_min":68,"x_max":755,"o":"m 76 329 q 72 362 76 329 q 68 486 68 396 q 76 643 68 575 q 102 767 84 710 q 151 863 121 824 q 227 928 181 901 q 335 968 273 956 q 479 981 397 981 q 755 945 640 981 l 732 741 q 512 760 623 760 q 448 753 476 760 q 401 734 420 745 q 369 702 382 723 q 348 661 355 681 q 337 609 340 641 q 332 551 333 577 q 331 486 331 526 q 331 434 331 454 q 334 387 332 414 q 339 343 336 359 q 349 306 342 326 q 364 272 355 285 q 387 247 374 260 q 418 227 401 234 q 459 215 436 220 q 512 211 483 211 q 731 231 627 211 l 755 24 q 479 -10 642 -10 q 335 2 397 -10 q 227 42 273 15 q 151 108 181 69 q 102 204 121 147 q 76 329 84 262 z "},"D":{"ha":928,"x_min":96,"x_max":860,"o":"m 96 20 l 96 949 q 427 981 245 981 q 566 970 505 981 q 673 941 627 960 q 751 889 719 922 q 805 819 784 857 q 838 728 826 781 q 855 617 850 674 q 860 486 860 560 q 855 354 860 411 q 838 243 850 297 q 805 151 826 189 q 751 81 784 113 q 673 30 719 50 q 566 0 627 11 q 427 -10 505 -10 q 96 20 243 -10 m 355 209 q 401 206 380 206 q 460 211 433 206 q 506 223 486 216 q 541 244 526 230 q 566 270 555 258 q 583 304 576 283 q 593 342 589 326 q 598 387 597 359 q 601 434 600 415 q 601 486 601 452 q 601 537 601 519 q 598 584 600 556 q 593 629 597 612 q 583 667 589 645 q 566 701 576 688 q 541 727 555 713 q 506 748 526 741 q 460 760 486 755 q 401 765 433 765 q 355 762 386 765 l 355 209 z "},"E":{"ha":826,"x_min":92,"x_max":722,"o":"m 92 252 l 92 720 q 99 793 92 760 q 115 850 105 826 q 142 894 125 875 q 177 926 160 913 q 221 948 195 939 q 269 962 248 957 q 324 969 291 966 q 381 972 357 972 q 441 973 405 973 q 722 966 594 973 l 722 759 l 437 759 q 367 742 383 759 q 351 669 351 724 l 351 598 l 706 598 l 706 388 l 351 388 l 351 303 q 367 230 351 248 q 437 212 383 212 l 722 212 l 722 7 q 441 -3 547 -3 q 381 -2 406 -3 q 324 1 356 -1 q 269 9 292 4 q 221 23 247 14 q 177 45 195 33 q 142 78 160 58 q 115 122 125 97 q 99 179 105 146 q 92 252 92 212 z "},"F":{"ha":779,"x_min":96,"x_max":727,"o":"m 96 0 l 96 720 q 103 793 96 760 q 119 850 109 826 q 146 894 129 875 q 181 926 164 913 q 225 948 199 939 q 274 962 252 957 q 328 969 296 966 q 385 972 361 972 q 446 973 409 973 q 608 969 492 973 q 727 966 725 966 l 727 759 l 441 759 q 371 742 387 759 q 355 669 355 724 l 355 598 l 709 598 l 709 388 l 355 388 l 355 0 l 96 0 z "},"G":{"ha":899,"x_min":68,"x_max":823,"o":"m 68 486 q 76 644 68 576 q 102 769 83 711 q 151 864 120 826 q 227 929 181 903 q 335 968 273 956 q 479 981 397 981 q 807 947 661 981 l 785 745 q 511 764 665 764 q 447 756 475 764 q 400 737 419 749 q 368 705 381 726 q 347 663 355 684 q 336 611 340 643 q 331 552 332 578 q 330 486 330 526 q 331 418 330 444 q 336 359 332 391 q 347 306 340 326 q 368 264 355 286 q 399 232 380 243 q 446 214 418 221 q 509 206 473 206 q 577 223 561 206 q 594 288 594 240 l 594 368 l 454 368 l 454 570 l 823 570 l 823 205 q 818 143 823 171 q 803 95 812 116 q 778 58 794 74 q 745 31 762 42 q 704 12 729 20 q 657 0 679 4 q 602 -6 635 -4 q 544 -9 570 -9 q 479 -10 517 -10 q 310 9 380 -10 q 193 64 240 28 q 118 163 146 101 q 79 301 91 224 q 68 486 68 378 z "},"H":{"ha":960,"x_min":98,"x_max":862,"o":"m 98 0 l 98 971 l 357 971 l 357 604 l 602 604 l 602 971 l 862 971 l 862 0 l 602 0 l 602 387 l 357 387 l 357 0 l 98 0 z "},"I":{"ha":450,"x_min":96,"x_max":355,"o":"m 96 0 l 96 971 l 355 971 l 355 0 l 96 0 z "},"J":{"ha":629,"x_min":24,"x_max":537,"o":"m 24 30 l 46 223 q 187 193 128 193 q 253 219 229 193 q 277 312 277 244 l 277 971 l 537 971 l 537 339 q 522 178 537 242 q 471 71 507 115 q 374 8 435 27 q 222 -10 314 -10 q 115 0 171 -10 q 24 30 60 10 z "},"K":{"ha":908,"x_min":96,"x_max":909,"o":"m 96 0 l 96 971 l 355 971 l 355 521 l 605 971 l 907 971 l 633 507 l 909 0 l 596 0 l 355 477 l 355 0 l 96 0 z "},"L":{"ha":742,"x_min":96,"x_max":712,"o":"m 96 252 l 96 971 l 355 971 l 355 303 q 371 230 355 248 q 442 212 387 212 l 712 212 l 712 6 q 446 -3 509 -3 q 385 -2 410 -3 q 328 1 360 -1 q 273 9 296 4 q 225 23 251 14 q 181 45 199 33 q 146 78 164 58 q 119 122 129 97 q 103 179 109 146 q 96 252 96 212 z "},"M":{"ha":1149,"x_min":73,"x_max":1077,"o":"m 73 0 l 110 785 q 150 935 115 888 q 263 981 184 981 q 437 816 374 981 l 573 461 l 709 812 q 787 938 741 895 q 887 981 833 981 q 1004 939 972 981 q 1041 784 1036 898 l 1077 0 l 827 0 l 820 591 l 819 591 l 713 259 q 574 124 670 124 q 493 157 525 124 q 436 259 460 190 l 321 589 l 320 588 l 315 0 l 73 0 z "},"N":{"ha":1002,"x_min":98,"x_max":905,"o":"m 98 0 l 98 779 q 250 981 98 981 q 363 942 315 981 q 456 811 411 904 l 670 365 l 670 971 l 905 971 l 905 193 q 751 -10 905 -10 q 637 25 682 -10 q 546 160 593 61 l 332 608 l 332 0 l 98 0 z "},"O":{"ha":929,"x_min":68,"x_max":861,"o":"m 86 259 q 77 304 86 259 q 68 486 68 349 q 86 712 68 622 q 151 864 105 802 q 273 954 197 926 q 465 981 349 981 q 656 954 581 981 q 778 864 732 926 q 843 712 824 802 q 861 486 861 622 q 843 259 861 349 q 778 106 824 169 q 656 17 732 44 q 465 -10 581 -10 q 273 17 349 -10 q 151 106 197 44 q 86 259 105 169 m 330 486 q 331 432 330 450 q 332 384 331 414 q 335 339 333 354 q 342 302 338 324 q 353 268 347 279 q 370 243 360 257 q 394 223 380 230 q 425 213 407 217 q 465 208 443 208 q 504 213 486 208 q 535 223 522 217 q 559 243 549 230 q 576 268 569 257 q 587 302 583 279 q 594 339 591 324 q 597 384 596 354 q 598 432 598 414 q 599 486 599 450 q 599 534 599 517 q 598 578 599 551 q 595 619 597 605 q 590 655 593 633 q 582 687 587 676 q 569 713 576 699 q 552 735 562 728 q 530 750 543 743 q 501 761 517 758 q 465 764 484 764 q 428 761 445 764 q 399 750 412 758 q 377 735 387 743 q 360 713 367 728 q 348 687 353 699 q 339 655 342 676 q 334 619 336 633 q 331 578 332 605 q 330 534 330 551 q 330 486 330 517 z "},"P":{"ha":872,"x_min":96,"x_max":824,"o":"m 96 0 l 96 951 q 425 981 247 981 q 518 978 477 981 q 601 966 559 975 q 676 942 644 957 q 737 903 708 927 q 784 845 766 878 q 813 765 802 812 q 824 660 824 718 q 805 524 824 581 q 753 430 786 466 q 670 373 721 394 q 563 343 619 351 q 434 335 507 335 q 355 338 401 335 l 355 0 l 96 0 m 355 547 q 428 543 385 543 q 534 569 499 543 q 568 660 568 594 q 539 748 568 722 q 431 773 509 773 q 355 768 389 773 l 355 547 z "},"Q":{"ha":929,"x_min":68,"x_max":870,"o":"m 86 259 q 77 304 86 259 q 68 486 68 349 q 86 712 68 622 q 151 864 105 802 q 273 954 197 926 q 465 981 349 981 q 656 954 581 981 q 778 864 732 926 q 843 712 824 802 q 861 486 861 622 q 827 200 861 306 q 709 43 792 94 q 756 -8 730 15 q 804 -43 783 -31 q 870 -81 825 -56 l 697 -203 q 673 -192 691 -200 q 647 -179 655 -183 q 622 -166 639 -175 q 595 -151 604 -157 q 570 -135 585 -145 q 544 -116 554 -125 q 522 -95 534 -107 q 499 -70 509 -82 q 481 -42 490 -58 q 465 -10 472 -26 q 273 17 349 -10 q 151 106 197 44 q 86 259 105 169 m 330 486 q 331 432 330 450 q 332 384 331 414 q 335 339 333 354 q 342 302 338 324 q 353 268 347 279 q 370 243 360 257 q 394 223 380 230 q 425 213 407 217 q 465 208 443 208 q 504 213 486 208 q 535 223 522 217 q 559 243 549 230 q 576 268 569 257 q 587 302 583 279 q 594 339 591 324 q 597 384 596 354 q 598 432 598 414 q 599 486 599 450 q 599 534 599 517 q 598 578 599 551 q 595 619 597 605 q 590 655 593 633 q 582 687 587 676 q 569 713 576 699 q 552 735 562 728 q 530 750 543 743 q 501 761 517 758 q 465 764 484 764 q 428 761 445 764 q 399 750 412 758 q 377 735 387 743 q 360 713 367 728 q 348 687 353 699 q 339 655 342 676 q 334 619 336 633 q 331 578 332 605 q 330 534 330 551 q 330 486 330 517 z "},"R":{"ha":913,"x_min":96,"x_max":882,"o":"m 96 0 l 96 951 q 425 981 247 981 q 532 976 486 981 q 627 959 579 971 q 709 924 675 947 q 770 867 743 901 q 810 781 797 833 q 824 663 824 730 q 785 480 824 548 q 670 379 745 412 l 882 0 l 589 0 l 407 342 q 355 345 371 343 l 355 0 l 96 0 m 355 555 q 428 551 385 551 q 534 576 499 551 q 568 664 568 600 q 538 748 568 723 q 431 773 509 773 q 355 768 389 773 l 355 555 z "},"S":{"ha":785,"x_min":54,"x_max":728,"o":"m 54 25 l 79 229 q 343 203 236 203 q 434 222 406 203 q 463 283 463 241 q 436 342 463 321 q 339 384 409 362 q 242 419 282 401 q 166 461 203 436 q 107 517 129 486 q 72 590 85 547 q 59 688 59 633 q 82 827 59 770 q 152 918 105 884 q 264 966 199 951 q 418 981 328 981 q 718 944 568 981 l 694 747 q 465 772 552 772 q 422 771 439 772 q 383 766 405 770 q 349 755 361 762 q 327 735 336 749 q 317 703 317 722 q 346 646 317 663 q 460 606 374 629 q 670 495 612 565 q 728 295 728 426 q 634 61 728 132 q 357 -10 541 -10 q 54 25 211 -10 z "},"T":{"ha":743,"x_min":22,"x_max":720,"o":"m 22 757 l 22 971 l 720 971 l 720 757 l 500 757 l 500 0 l 240 0 l 240 757 l 22 757 z "},"U":{"ha":932,"x_min":91,"x_max":840,"o":"m 91 338 l 91 971 l 347 971 l 347 327 q 372 237 347 262 q 465 212 397 212 q 557 237 532 212 q 583 327 583 262 l 583 971 l 840 971 l 840 338 q 822 196 840 256 q 773 96 804 135 q 694 33 743 57 q 591 -1 646 9 q 465 -10 536 -10 q 310 6 375 -10 q 194 60 245 22 q 117 168 142 98 q 91 338 91 237 z "},"V":{"ha":914,"x_min":9,"x_max":905,"o":"m 9 971 l 286 971 l 460 316 l 638 971 l 905 971 l 640 154 q 568 28 612 67 q 458 -10 524 -10 q 349 25 390 -10 q 278 154 309 61 l 9 971 z "},"W":{"ha":1211,"x_min":20,"x_max":1191,"o":"m 20 971 l 281 971 l 372 330 l 374 330 l 439 667 q 606 867 479 867 q 710 820 667 867 q 773 666 752 774 l 838 331 l 839 331 l 935 971 l 1191 971 l 1018 168 q 958 31 998 73 q 852 -10 919 -10 q 738 30 781 -10 q 675 166 695 69 l 602 523 l 600 523 l 534 166 q 471 33 517 76 q 357 -10 425 -10 q 251 31 290 -10 q 191 167 212 71 l 20 971 z "},"X":{"ha":932,"x_min":2,"x_max":930,"o":"m 2 0 l 320 494 l 14 971 l 311 971 l 469 710 l 631 971 l 912 971 l 608 499 l 930 0 l 631 0 l 459 279 l 292 0 l 2 0 z "},"Y":{"ha":885,"x_min":-1,"x_max":886,"o":"m -1 971 l 279 971 l 444 634 l 614 971 l 886 971 l 572 372 l 572 0 l 313 0 l 313 372 l -1 971 z "},"Z":{"ha":795,"x_min":41,"x_max":739,"o":"m 41 101 q 69 188 41 140 l 403 753 l 67 753 l 67 971 l 593 971 q 739 870 739 971 q 711 783 739 831 l 380 219 l 734 219 l 734 0 l 187 0 q 78 26 115 0 q 41 101 41 52 z "},"[":{"ha":494,"x_min":96,"x_max":454,"o":"m 96 -227 l 96 1004 l 454 1004 l 454 810 l 327 810 l 327 -32 l 454 -32 l 454 -227 l 96 -227 z "},"\\":{"ha":652,"x_min":33,"x_max":627,"o":"m 33 1005 l 233 1005 l 627 -112 l 427 -112 l 33 1005 z "},"]":{"ha":494,"x_min":40,"x_max":398,"o":"m 40 810 l 40 1004 l 398 1004 l 398 -227 l 41 -227 l 41 -32 l 168 -32 l 168 810 l 40 810 z "},"^":{"ha":732,"x_min":41,"x_max":691,"o":"m 41 397 l 286 971 l 447 971 l 691 397 l 490 397 l 366 692 l 243 397 l 41 397 z "},"_":{"ha":696,"x_min":-4,"x_max":700,"o":"m -4 -126 l 700 -126 l 700 -196 l -4 -196 l -4 -126 z "},"`":{"ha":399,"x_min":5,"x_max":365,"o":"m 5 1008 l 237 1008 l 365 778 l 181 778 l 5 1008 z "},"a":{"ha":764,"x_min":48,"x_max":686,"o":"m 48 238 q 99 403 48 342 q 267 483 151 463 q 449 499 332 494 q 429 544 449 532 q 360 556 408 556 q 89 536 244 556 l 69 721 q 372 752 239 752 q 470 745 426 752 q 555 721 514 739 q 625 676 597 704 q 670 605 653 649 q 686 502 686 560 l 686 219 q 680 67 686 135 q 349 -10 555 -10 q 119 50 190 -10 q 48 238 48 111 m 288 241 q 308 194 288 208 q 366 180 328 180 q 444 188 412 180 q 449 288 449 230 l 449 339 q 345 325 378 334 q 300 300 313 317 q 288 241 288 283 z "},"b":{"ha":829,"x_min":79,"x_max":763,"o":"m 79 219 l 79 1029 l 324 1029 l 324 746 q 420 752 370 752 q 573 733 511 752 q 679 671 635 715 q 743 553 722 627 q 763 371 763 479 q 743 188 763 260 q 677 71 722 115 q 565 8 631 26 q 400 -10 499 -10 q 231 9 315 -10 q 86 67 147 28 q 79 219 79 142 m 324 294 q 329 195 324 237 q 400 186 357 186 q 444 193 425 186 q 475 208 463 199 q 496 232 487 216 q 509 261 505 248 q 516 297 513 275 q 518 333 518 319 q 519 371 519 347 q 518 420 519 401 q 513 464 517 439 q 499 502 509 488 q 475 529 490 516 q 437 549 460 543 q 381 555 413 555 q 324 549 350 555 l 324 294 z "},"c":{"ha":664,"x_min":59,"x_max":616,"o":"m 59 377 q 67 510 59 454 q 97 613 75 566 q 157 690 119 661 q 253 736 194 720 q 394 752 312 752 q 615 718 516 752 l 595 541 q 448 562 494 562 q 373 553 401 562 q 329 521 345 545 q 309 465 313 497 q 304 377 304 433 q 304 325 304 345 q 308 282 305 305 q 317 246 311 259 q 334 220 323 233 q 360 200 345 207 q 398 190 376 194 q 450 186 420 186 q 596 207 501 186 l 616 23 q 347 -10 496 -10 q 251 1 294 -10 q 179 33 209 13 q 128 82 150 52 q 93 144 106 112 q 72 217 80 176 q 62 295 64 258 q 59 377 59 332 z "},"d":{"ha":831,"x_min":66,"x_max":750,"o":"m 66 371 q 87 553 66 479 q 151 671 107 627 q 257 733 195 715 q 409 752 319 752 q 505 746 460 752 l 505 1029 l 750 1029 l 750 219 q 744 67 750 135 q 599 9 683 28 q 430 -10 515 -10 q 265 8 331 -10 q 153 71 199 26 q 87 188 107 115 q 66 371 66 260 m 311 371 q 311 327 311 343 q 315 285 312 310 q 327 245 319 260 q 347 216 334 231 q 380 194 359 201 q 430 186 401 186 q 501 195 473 186 q 505 294 505 231 l 505 549 q 448 555 479 555 q 393 549 416 555 q 354 529 369 543 q 330 502 339 516 q 317 464 321 488 q 312 420 313 439 q 311 371 311 401 z "},"e":{"ha":783,"x_min":54,"x_max":725,"o":"m 54 371 q 131 664 54 576 q 394 752 207 752 q 515 741 463 752 q 604 705 568 729 q 664 651 640 682 q 701 575 688 620 q 720 483 714 530 q 725 374 725 436 q 722 305 725 351 q 400 268 590 279 l 297 262 q 327 204 299 220 q 422 189 355 189 q 693 209 530 189 l 713 22 q 380 -10 530 -10 q 247 9 304 -10 q 154 60 190 28 q 95 142 117 93 q 63 247 72 191 q 54 371 54 302 m 290 430 l 368 434 q 480 444 441 438 q 481 462 481 455 q 461 536 481 512 q 394 560 441 560 q 339 551 361 560 q 307 523 317 542 q 294 483 297 503 q 290 430 290 462 z "},"f":{"ha":570,"x_min":39,"x_max":561,"o":"m 39 549 l 39 742 l 155 742 l 155 793 q 219 975 155 911 q 412 1039 283 1039 q 561 1028 481 1039 l 542 857 l 479 857 q 416 841 433 857 q 398 786 398 825 l 398 742 l 541 742 l 541 549 l 398 549 l 398 0 l 155 0 l 155 549 l 39 549 z "},"g":{"ha":819,"x_min":53,"x_max":736,"o":"m 53 379 q 74 558 53 486 q 142 673 96 630 q 254 734 189 715 q 416 752 320 752 q 585 733 501 752 q 730 675 669 713 q 736 524 736 607 l 736 -28 q 720 -133 736 -87 q 674 -207 703 -178 q 604 -252 646 -235 q 516 -277 562 -270 q 416 -283 471 -283 q 92 -247 280 -283 l 111 -63 q 382 -86 283 -86 q 492 13 492 -86 q 395 7 446 7 q 243 25 306 7 q 137 87 181 44 q 73 202 94 130 q 53 379 53 273 m 297 379 q 298 339 297 355 q 301 303 298 323 q 310 271 304 283 q 326 244 315 258 q 350 222 336 230 q 386 209 364 214 q 435 204 407 204 q 492 210 467 204 l 492 448 q 487 547 492 505 q 416 556 457 556 q 362 545 385 556 q 327 517 339 534 q 308 475 315 500 q 299 428 300 450 q 297 379 297 407 z "},"h":{"ha":847,"x_min":81,"x_max":754,"o":"m 81 0 l 81 1029 l 327 1029 l 327 738 q 450 752 386 752 q 555 744 509 752 q 632 722 601 735 q 687 685 664 708 q 722 640 709 663 q 743 584 735 616 q 752 523 750 551 q 754 456 754 494 l 754 0 l 509 0 l 509 439 q 489 525 509 502 q 400 549 469 549 q 327 539 359 549 l 327 0 l 81 0 z "},"i":{"ha":425,"x_min":74,"x_max":350,"o":"m 105 821 q 89 835 105 821 q 74 916 74 849 q 105 1010 74 982 q 212 1039 136 1039 q 319 1010 288 1039 q 350 916 350 982 q 319 821 350 849 q 212 792 288 792 q 105 821 136 792 m 90 0 l 90 742 l 336 742 l 336 0 l 90 0 z "},"j":{"ha":429,"x_min":-72,"x_max":353,"o":"m -72 -280 l -52 -98 q -5 -92 -22 -95 q 33 -82 12 -89 q 65 -64 54 -75 q 84 -34 76 -53 q 92 12 92 -15 l 92 742 l 338 742 l 338 32 q 261 -212 338 -141 q 6 -283 184 -283 q -72 -280 -39 -283 m 107 821 q 92 835 107 821 q 77 916 77 849 q 107 1010 77 982 q 214 1039 138 1039 q 321 1010 290 1039 q 353 916 353 982 q 321 821 353 849 q 214 792 290 792 q 107 821 138 792 z "},"k":{"ha":829,"x_min":81,"x_max":813,"o":"m 81 0 l 81 1029 l 326 1029 l 326 426 l 520 742 l 804 742 l 585 409 l 813 0 l 519 0 l 326 379 l 326 0 l 81 0 z "},"l":{"ha":414,"x_min":75,"x_max":366,"o":"m 75 182 l 75 1029 l 319 1029 l 319 210 q 330 129 319 163 q 366 56 340 95 l 146 -45 q 75 182 75 39 z "},"m":{"ha":1146,"x_min":80,"x_max":1065,"o":"m 80 0 l 80 524 q 86 675 80 607 q 412 752 212 752 q 581 718 515 752 q 779 752 686 752 q 905 736 852 752 q 988 696 958 721 q 1037 632 1019 671 q 1060 555 1055 593 q 1065 465 1065 516 l 1065 0 l 823 0 l 823 449 q 806 527 823 502 q 739 553 789 553 q 689 545 713 553 q 694 465 694 515 l 694 0 l 451 0 l 451 449 q 436 526 451 499 q 380 553 420 553 q 327 545 350 553 q 322 445 322 503 l 322 0 l 80 0 z "},"n":{"ha":804,"x_min":79,"x_max":726,"o":"m 79 0 l 79 524 q 85 675 79 607 q 411 752 211 752 q 517 745 470 752 q 596 726 564 738 q 653 693 629 713 q 690 651 676 673 q 712 597 705 629 q 723 535 720 566 q 726 465 726 505 l 726 0 l 484 0 l 484 449 q 466 530 484 507 q 394 553 448 552 q 326 545 357 553 q 321 445 321 503 l 321 0 l 79 0 z "},"o":{"ha":783,"x_min":54,"x_max":729,"o":"m 54 371 q 131 665 54 578 q 392 752 207 752 q 653 665 577 752 q 729 371 729 578 q 653 76 729 163 q 392 -10 577 -10 q 131 77 207 -10 q 54 371 54 163 m 298 371 q 316 226 298 261 q 392 191 334 191 q 468 226 450 191 q 486 371 486 261 q 468 516 486 480 q 392 552 450 552 q 316 516 334 552 q 298 371 298 480 z "},"p":{"ha":830,"x_min":81,"x_max":765,"o":"m 81 -273 l 81 524 q 87 675 81 607 q 232 733 149 713 q 401 752 316 752 q 567 734 500 752 q 679 671 633 715 q 745 554 724 627 q 765 371 765 481 q 745 189 765 262 q 680 71 724 115 q 574 8 636 27 q 422 -10 512 -10 q 326 -4 372 -10 l 326 -273 l 81 -273 m 326 194 q 383 188 351 188 q 432 193 411 188 q 468 206 454 198 q 492 228 482 214 q 508 255 503 242 q 516 290 513 269 q 519 328 519 312 q 520 371 520 345 q 520 409 520 395 q 517 445 519 423 q 510 481 515 467 q 497 510 506 494 q 476 535 488 526 q 445 550 464 544 q 401 556 426 556 q 330 547 360 556 q 326 448 326 511 l 326 194 z "},"q":{"ha":829,"x_min":65,"x_max":749,"o":"m 65 371 q 85 554 65 481 q 152 671 106 627 q 263 734 197 715 q 429 752 330 752 q 598 733 514 752 q 743 675 682 713 q 749 524 749 607 l 749 -273 l 504 -273 l 504 -4 q 408 -10 458 -10 q 256 8 318 -10 q 150 71 194 27 q 85 189 106 115 q 65 371 65 262 m 310 371 q 311 328 310 345 q 314 290 311 312 q 322 255 317 269 q 338 228 328 242 q 362 206 348 214 q 398 193 376 198 q 447 188 419 188 q 504 194 479 188 l 504 448 q 500 547 504 511 q 429 556 470 556 q 385 550 404 556 q 354 535 366 544 q 333 510 342 526 q 320 481 324 494 q 313 445 315 467 q 310 409 311 423 q 310 371 310 395 z "},"r":{"ha":520,"x_min":79,"x_max":488,"o":"m 79 0 l 79 524 q 85 675 79 607 q 230 733 146 713 q 399 752 314 752 q 488 747 450 752 l 468 549 q 421 552 434 552 q 325 533 364 552 q 321 433 321 488 l 321 0 l 79 0 z "},"s":{"ha":685,"x_min":52,"x_max":634,"o":"m 52 28 l 75 208 q 287 181 205 181 l 300 181 q 328 181 317 181 q 352 184 338 182 q 372 191 365 186 q 385 202 380 195 q 390 220 390 210 q 386 237 390 230 q 377 249 382 245 q 361 258 372 254 q 344 266 351 263 q 322 272 336 268 q 300 278 307 275 q 233 301 261 290 q 171 332 205 312 q 116 377 137 353 q 79 439 94 401 q 64 523 64 477 q 338 752 64 752 q 629 716 484 752 l 607 540 q 412 565 493 565 q 371 564 385 565 q 339 560 357 564 q 314 549 322 557 q 307 528 307 541 q 311 510 307 518 q 328 496 316 503 q 349 487 340 490 q 379 477 358 484 q 412 467 401 470 q 532 420 502 436 q 626 300 607 378 q 634 227 634 268 q 619 132 634 173 q 577 64 604 90 q 512 20 551 37 q 430 -3 473 3 q 335 -10 387 -10 q 52 28 179 -10 z "},"t":{"ha":590,"x_min":38,"x_max":549,"o":"m 38 551 l 38 742 l 149 742 l 149 912 l 391 951 l 391 742 l 529 742 l 529 551 l 391 551 l 391 245 q 455 177 391 177 q 530 180 497 177 l 549 7 q 390 -10 460 -10 q 207 45 265 -10 q 149 214 149 100 l 149 551 l 38 551 z "},"u":{"ha":801,"x_min":76,"x_max":720,"o":"m 76 277 l 76 742 l 319 742 l 319 293 q 337 212 319 235 q 407 189 355 189 q 473 197 442 189 q 477 297 477 239 l 477 742 l 720 742 l 720 219 q 713 67 720 135 q 389 -10 588 -10 q 284 -3 330 -10 q 205 16 238 4 q 149 49 172 28 q 111 91 125 69 q 89 145 97 113 q 79 207 81 176 q 76 277 76 237 z "},"v":{"ha":806,"x_min":20,"x_max":787,"o":"m 20 742 l 275 742 l 408 267 l 538 742 l 787 742 l 569 128 q 403 -10 520 -10 q 238 128 287 -10 l 20 742 z "},"w":{"ha":1090,"x_min":18,"x_max":1072,"o":"m 18 742 l 267 742 l 345 275 l 346 275 l 396 517 q 548 688 431 688 q 699 517 660 688 l 753 278 l 753 278 l 831 742 l 1072 742 l 922 154 q 862 30 901 70 q 765 -10 823 -10 q 600 153 646 -10 l 543 356 l 494 154 q 430 31 473 73 q 328 -10 387 -10 q 230 28 267 -10 q 170 155 193 66 l 18 742 z "},"x":{"ha":840,"x_min":12,"x_max":829,"o":"m 12 0 l 283 382 l 29 742 l 310 742 l 428 565 l 545 742 l 810 742 l 557 385 l 829 0 l 543 0 l 411 197 l 283 0 l 12 0 z "},"y":{"ha":806,"x_min":8,"x_max":779,"o":"m 8 742 l 268 742 l 414 369 l 529 742 l 779 742 l 434 -273 l 183 -273 l 304 57 l 8 742 z "},"z":{"ha":732,"x_min":43,"x_max":682,"o":"m 43 85 q 74 165 43 122 l 340 547 l 70 547 l 70 742 l 578 742 q 654 719 626 742 q 682 658 682 696 q 652 578 682 620 l 389 202 l 661 202 l 661 0 l 148 0 q 71 23 99 0 q 43 85 43 46 z "},"{":{"ha":503,"x_min":41,"x_max":469,"o":"m 41 303 l 41 475 q 117 525 100 480 q 134 704 134 569 q 140 793 134 754 q 157 862 146 832 q 188 912 168 891 q 231 948 208 933 q 289 972 254 962 q 360 987 323 981 q 447 996 396 992 l 469 820 q 433 814 449 818 q 405 803 416 810 q 386 790 394 795 q 373 772 378 784 q 365 754 368 761 q 361 732 362 747 q 360 710 360 717 q 359 685 359 703 l 359 596 q 358 544 359 565 q 353 495 357 524 q 341 449 349 467 q 318 413 333 430 q 281 387 302 396 q 318 357 302 377 q 341 317 334 338 q 354 266 349 297 q 359 214 358 235 q 359 159 359 193 l 359 93 q 360 65 359 73 q 362 40 360 57 q 368 16 363 24 q 379 -4 372 8 q 399 -22 387 -16 q 428 -34 410 -28 q 469 -42 446 -39 l 447 -218 q 347 -207 387 -214 q 268 -187 306 -200 q 208 -154 231 -174 q 167 -102 184 -134 q 142 -28 149 -71 q 134 75 134 16 q 131 185 134 146 q 118 252 128 224 q 90 290 107 279 q 41 303 72 300 z "},"|":{"ha":382,"x_min":96,"x_max":287,"o":"m 96 -273 l 96 1029 l 287 1029 l 287 -273 l 96 -273 z "},"}":{"ha":503,"x_min":34,"x_max":463,"o":"m 34 -42 q 75 -34 57 -39 q 104 -22 93 -28 q 124 -4 116 -16 q 136 16 132 7 q 142 40 140 24 q 144 65 144 56 q 144 93 144 74 l 144 159 q 145 214 144 193 q 150 266 146 235 q 162 317 155 297 q 186 357 170 338 q 223 387 201 377 q 186 413 201 396 q 162 448 170 430 q 150 495 155 467 q 145 544 146 524 q 144 596 144 564 l 144 685 q 144 718 144 707 q 140 746 143 728 q 131 773 138 764 q 112 794 124 783 q 81 811 100 805 q 34 820 61 817 l 57 996 q 175 982 129 991 q 261 954 221 972 q 323 903 302 935 q 357 823 345 871 q 369 704 369 774 q 387 525 369 570 q 463 475 404 480 l 463 303 q 422 293 438 300 q 395 271 406 285 q 378 229 384 256 q 371 166 373 201 q 369 75 369 132 q 361 -28 369 16 q 337 -102 354 -71 q 296 -154 319 -134 q 236 -188 273 -174 q 157 -207 198 -201 q 57 -218 117 -214 l 34 -42 z "},"~":{"ha":838,"x_min":54,"x_max":785,"o":"m 54 291 q 126 519 66 440 q 270 598 186 598 q 352 587 316 598 q 410 558 388 575 q 450 525 432 542 q 490 496 469 508 q 534 485 511 485 q 604 593 584 485 l 785 593 q 712 365 772 444 q 568 286 652 286 q 486 297 522 286 q 429 326 450 309 q 389 359 407 342 q 350 388 371 376 q 304 399 329 399 q 235 291 254 399 l 54 291 z "}," ":{"ha":333,"x_min":0,"x_max":0,"o":""},"¡":{"ha":440,"x_min":79,"x_max":361,"o":"m 79 -238 l 113 446 l 327 446 l 361 -238 l 79 -238 m 113 525 q 97 539 113 525 q 82 620 82 553 q 113 715 82 686 q 220 743 144 743 q 327 715 296 743 q 358 620 358 686 q 327 525 358 553 q 220 496 296 496 q 113 525 144 496 z "},"¢":{"ha":644,"x_min":56,"x_max":596,"o":"m 56 477 q 61 590 56 542 q 82 681 67 638 q 122 754 97 724 q 187 804 148 783 q 281 833 227 825 l 281 964 l 440 964 l 440 839 q 595 808 522 833 l 576 635 q 433 656 475 656 q 359 648 387 656 q 317 617 332 640 q 297 563 302 594 q 292 477 292 532 q 293 426 292 446 q 297 385 294 407 q 306 350 300 363 q 321 325 311 338 q 347 306 332 312 q 384 296 363 300 q 435 292 406 292 q 576 312 480 292 l 596 134 q 440 106 524 113 l 440 -23 l 281 -23 l 281 104 q 182 137 224 112 q 117 197 140 163 q 79 280 93 231 q 60 374 64 329 q 56 477 56 420 z "},"£":{"ha":840,"x_min":50,"x_max":795,"o":"m 50 387 l 50 568 l 153 568 q 149 670 149 621 q 167 786 149 736 q 216 867 185 836 q 293 917 248 898 q 389 944 339 937 q 500 951 439 951 q 581 944 544 951 q 642 928 617 937 q 697 897 667 919 q 744 860 726 876 q 795 812 761 845 l 669 663 q 589 724 624 705 q 505 743 555 743 q 419 720 443 743 q 396 641 396 696 q 399 568 396 600 l 593 568 l 593 387 l 414 387 q 414 347 414 374 q 389 210 414 283 l 500 210 q 751 230 628 210 l 772 34 q 435 0 646 0 l 232 0 q 140 28 170 0 q 110 99 110 56 q 121 149 110 122 q 145 197 132 175 q 169 257 158 219 q 180 337 180 294 q 178 387 180 362 l 50 387 z "},"¤":{"ha":899,"x_min":44,"x_max":854,"o":"m 44 197 l 149 299 q 104 465 104 377 q 149 633 104 555 l 44 736 l 176 869 l 283 762 q 449 805 361 805 q 616 764 538 805 l 720 869 l 854 736 l 750 635 q 797 465 797 555 q 750 298 797 374 l 854 197 l 720 63 l 615 170 q 449 127 536 127 q 281 169 360 127 l 176 63 l 44 197 m 300 465 q 343 356 300 401 q 449 310 386 310 q 555 355 509 310 q 600 465 600 401 q 556 576 600 530 q 449 622 512 622 q 344 576 388 622 q 300 465 300 530 z "},"¥":{"ha":843,"x_min":36,"x_max":808,"o":"m 36 942 l 287 942 l 423 616 l 566 942 l 808 942 l 627 547 l 723 547 l 723 406 l 563 406 l 543 363 l 543 314 l 723 314 l 723 174 l 543 174 l 543 0 l 299 0 l 299 174 l 121 174 l 121 314 l 299 314 l 299 363 l 279 406 l 121 406 l 121 547 l 216 547 l 36 942 z "},"¦":{"ha":356,"x_min":83,"x_max":274,"o":"m 83 -196 l 83 252 l 274 252 l 274 -196 l 83 -196 m 83 504 l 83 951 l 274 951 l 274 504 l 83 504 z "},"§":{"ha":796,"x_min":50,"x_max":745,"o":"m 50 429 q 136 609 50 541 q 102 724 102 659 q 185 909 102 838 q 410 981 267 981 q 709 944 559 981 l 686 767 q 432 793 551 793 q 345 739 345 793 q 353 715 345 727 q 372 694 361 703 q 402 674 382 685 q 437 657 422 664 q 477 641 452 651 q 532 618 511 627 q 584 593 553 609 q 635 562 615 576 q 678 525 655 547 q 714 479 701 503 q 736 424 728 456 q 745 357 745 393 q 722 258 745 298 q 656 184 698 217 q 696 56 696 132 q 676 -47 696 -2 q 623 -121 656 -92 q 544 -168 589 -149 q 452 -194 498 -186 q 355 -201 406 -201 q 58 -166 203 -201 l 81 16 q 334 -11 214 -11 q 361 -11 353 -11 q 387 -9 370 -10 q 413 -5 405 -8 q 432 4 422 -1 q 447 20 443 10 q 452 43 452 30 q 432 80 452 62 q 394 106 412 98 q 331 134 375 115 q 321 138 325 136 q 278 155 292 149 q 236 174 264 161 q 194 196 209 187 q 156 220 179 205 q 121 250 134 236 q 92 284 108 264 q 69 325 77 304 q 55 372 61 346 q 50 429 50 399 m 260 449 q 357 353 260 400 q 434 322 380 341 q 509 293 488 304 q 525 338 525 307 q 498 390 525 366 q 418 441 472 415 q 350 468 399 450 q 277 498 300 486 q 260 449 260 484 z "},"¨":{"ha":627,"x_min":54,"x_max":575,"o":"m 85 805 q 69 821 85 805 q 54 884 54 837 q 85 962 54 930 q 163 993 117 993 q 241 962 210 993 q 273 884 273 930 q 241 805 273 837 q 163 774 210 774 q 85 805 117 774 m 388 805 q 372 821 388 805 q 356 884 356 837 q 388 962 356 930 q 467 993 420 993 q 544 962 513 993 q 575 884 575 930 q 544 805 575 837 q 467 774 513 774 q 388 805 420 774 z "},"©":{"ha":1086,"x_min":47,"x_max":1038,"o":"m 47 487 q 114 735 47 622 q 294 915 180 849 q 543 981 408 981 q 736 942 644 981 q 894 837 827 903 q 999 680 960 771 q 1038 487 1038 588 q 972 238 1038 352 q 792 57 906 123 q 543 -10 678 -10 q 350 29 442 -10 q 192 135 258 68 q 87 294 126 202 q 47 487 47 386 m 178 487 q 227 298 178 383 q 358 164 275 213 q 543 116 442 116 q 728 164 644 116 q 859 298 811 213 q 907 487 907 383 q 859 674 907 589 q 728 807 811 758 q 543 855 644 855 q 284 749 389 855 q 178 487 178 642 m 298 487 q 326 625 298 562 q 411 729 353 688 q 547 770 469 770 q 699 717 630 770 q 781 565 767 664 l 650 565 q 615 632 644 608 q 547 656 587 656 q 467 611 497 656 q 436 487 436 566 q 465 365 436 409 q 547 320 494 320 q 613 347 585 320 q 650 421 642 374 l 781 421 q 705 262 772 322 q 547 201 638 201 q 409 240 466 201 q 325 341 352 278 q 298 487 298 405 z "},"ª":{"ha":571,"x_min":58,"x_max":504,"o":"m 58 598 q 94 711 58 669 q 210 767 131 753 q 339 778 254 775 q 325 815 339 806 q 276 825 310 825 q 86 810 195 825 l 73 935 q 283 956 191 956 q 352 951 321 956 q 412 935 383 947 q 461 904 441 923 q 492 854 481 885 q 504 783 504 823 l 504 585 q 500 480 504 534 q 268 427 412 427 q 107 468 157 427 q 58 598 58 510 m 223 600 q 280 554 223 554 q 336 560 313 554 q 339 633 339 589 l 339 672 q 264 662 283 667 q 233 644 243 656 q 223 600 223 631 z "},"«":{"ha":851,"x_min":32,"x_max":806,"o":"m 32 359 l 239 652 l 454 652 l 267 359 l 454 66 l 239 66 l 32 359 m 384 359 l 591 652 l 806 652 l 618 359 l 806 66 l 591 66 l 384 359 z "},"¬":{"ha":869,"x_min":71,"x_max":760,"o":"m 71 376 l 71 566 l 760 566 l 760 114 l 563 114 l 563 376 l 71 376 z "},"­":{"ha":545,"x_min":83,"x_max":463,"o":"m 83 278 l 83 460 l 463 460 l 463 278 l 83 278 z "},"®":{"ha":681,"x_min":39,"x_max":642,"o":"m 39 680 q 127 893 39 805 q 341 981 216 981 q 554 893 466 981 q 642 680 642 805 q 602 529 642 598 q 492 419 562 459 q 341 378 423 378 q 190 419 259 378 q 80 529 120 459 q 39 680 39 598 m 127 680 q 189 526 127 589 q 341 464 251 464 q 492 526 431 464 q 553 680 553 589 q 492 833 553 771 q 341 895 431 895 q 189 833 251 895 q 127 680 127 771 m 233 536 l 233 843 l 347 843 q 441 819 412 843 q 470 747 470 795 q 420 664 470 686 l 482 536 l 391 536 l 336 650 l 315 650 l 315 536 l 233 536 m 315 721 l 339 721 q 390 747 390 721 q 338 772 390 772 l 315 772 l 315 721 z "},"¯":{"ha":594,"x_min":72,"x_max":522,"o":"m 72 810 l 72 951 l 522 951 l 522 810 l 72 810 z "},"°":{"ha":549,"x_min":40,"x_max":509,"o":"m 109 581 q 74 615 109 581 q 40 747 40 650 q 109 912 40 844 q 274 981 178 981 q 440 912 371 981 q 509 747 509 843 q 440 582 509 650 q 274 513 371 513 q 109 581 178 513 m 200 821 q 185 806 200 821 q 170 747 170 791 q 200 672 170 703 q 274 642 231 642 q 349 673 318 642 q 379 747 379 703 q 348 821 379 791 q 274 852 317 852 q 200 821 231 852 z "},"±":{"ha":811,"x_min":61,"x_max":751,"o":"m 61 -7 l 61 183 l 751 183 l 751 -7 l 61 -7 m 61 437 l 61 627 l 307 627 l 307 822 l 504 822 l 504 627 l 751 627 l 751 437 l 504 437 l 504 241 l 307 241 l 307 437 l 61 437 z "},"²":{"ha":500,"x_min":24,"x_max":454,"o":"m 24 564 q 64 743 48 700 q 141 850 87 812 q 210 886 169 869 q 270 919 252 904 q 287 957 287 934 q 266 996 287 986 q 183 1005 245 1005 q 50 991 131 1005 l 35 1116 q 238 1139 147 1139 q 307 1135 276 1139 q 365 1121 337 1131 q 412 1093 393 1110 q 443 1048 431 1076 q 454 983 454 1020 q 412 851 454 904 q 283 765 370 799 q 230 736 245 751 q 210 701 214 721 l 453 701 l 453 564 l 24 564 z "},"³":{"ha":486,"x_min":26,"x_max":451,"o":"m 26 582 l 44 708 q 199 694 154 694 q 262 704 244 694 q 281 745 281 714 q 243 791 281 787 q 123 798 189 798 l 110 798 l 110 916 q 242 928 172 917 q 276 971 276 933 q 260 1000 276 993 q 214 1008 244 1008 q 48 993 165 1008 l 32 1117 q 222 1140 146 1140 q 307 1134 271 1140 q 376 1111 343 1127 q 426 1062 408 1095 q 444 981 444 1029 q 374 865 444 903 q 435 819 418 846 q 451 749 451 792 q 393 602 451 645 q 220 559 335 559 q 193 559 206 559 q 163 561 180 559 q 138 564 146 563 q 110 568 130 564 q 85 572 89 571 q 55 577 81 572 q 26 582 28 581 z "},"´":{"ha":399,"x_min":35,"x_max":395,"o":"m 35 778 l 162 1008 l 395 1008 l 218 778 l 35 778 z "},"µ":{"ha":899,"x_min":101,"x_max":829,"o":"m 101 -273 l 101 742 l 326 742 l 326 303 q 352 212 326 247 q 420 176 377 176 q 473 189 451 176 q 508 220 495 201 q 528 274 521 240 q 537 341 535 307 q 540 422 540 374 l 540 742 l 766 742 l 766 296 q 766 264 766 275 q 767 236 766 254 q 771 209 768 218 q 778 188 773 200 q 789 168 782 175 q 805 153 795 160 q 829 142 815 146 l 829 -10 q 678 14 736 -10 q 594 74 620 37 q 514 8 555 26 q 418 -10 474 -10 q 366 -3 393 -10 q 325 16 340 4 l 325 -273 l 101 -273 z "},"¶":{"ha":924,"x_min":37,"x_max":823,"o":"m 37 666 q 139 894 37 817 q 422 971 240 971 l 823 971 l 823 -214 l 656 -214 l 656 822 l 532 822 l 532 -214 l 365 -214 l 365 370 q 195 417 270 376 q 78 524 119 458 q 37 666 37 589 z "},"·":{"ha":441,"x_min":81,"x_max":359,"o":"m 111 296 q 96 310 111 296 q 81 398 81 323 q 111 500 81 473 q 220 528 140 528 q 330 500 300 528 q 359 398 359 473 q 330 296 359 323 q 220 268 300 268 q 111 296 140 268 z "},"¸":{"ha":303,"x_min":-17,"x_max":285,"o":"m -17 -270 l 14 -187 q 110 -214 66 -214 q 146 -182 146 -214 q 133 -160 146 -169 q 100 -146 121 -151 q 62 -140 80 -142 q 25 -138 43 -138 l 108 0 l 232 0 l 182 -79 q 255 -114 225 -87 q 285 -180 285 -141 q 259 -253 285 -224 q 197 -293 234 -281 q 112 -305 159 -305 q -17 -270 43 -305 z "},"¹":{"ha":362,"x_min":18,"x_max":301,"o":"m 18 1089 q 178 1135 113 1103 l 301 1135 l 301 565 l 138 565 l 138 975 q 25 961 94 966 l 18 1089 z "},"º":{"ha":576,"x_min":52,"x_max":524,"o":"m 52 692 q 105 896 52 836 q 288 956 159 956 q 471 896 418 956 q 524 692 524 836 q 471 487 524 547 q 288 427 418 427 q 105 487 159 427 q 52 692 52 547 m 221 692 q 234 587 221 612 q 288 562 247 562 q 343 587 330 562 q 355 692 355 612 q 342 796 355 770 q 288 822 330 822 q 234 796 247 822 q 221 692 221 770 z "},"»":{"ha":851,"x_min":45,"x_max":820,"o":"m 45 66 l 234 359 l 45 652 l 261 652 l 468 359 l 261 66 l 45 66 m 397 66 l 585 359 l 397 652 l 612 652 l 820 359 l 612 66 l 397 66 z "},"¼":{"ha":1088,"x_min":25,"x_max":1049,"o":"m 25 925 q 185 970 118 939 l 309 970 l 309 400 l 145 400 l 145 810 q 33 796 111 804 l 25 925 m 163 -20 l 732 991 l 892 991 l 322 -20 l 163 -20 m 581 198 q 583 221 581 211 q 596 253 585 232 q 627 300 607 274 l 794 514 q 846 564 823 552 q 904 576 869 576 q 963 553 940 576 q 986 488 986 530 l 986 245 l 1049 245 l 1049 119 l 986 119 l 986 0 l 826 0 l 826 119 l 679 119 q 603 139 625 119 q 581 198 581 159 m 745 245 l 827 245 l 827 357 l 745 245 z "},"½":{"ha":1206,"x_min":26,"x_max":1149,"o":"m 26 925 q 186 970 118 939 l 310 970 l 310 400 l 146 400 l 146 810 q 33 796 112 804 l 26 925 m 163 -20 l 733 991 l 893 991 l 323 -20 l 163 -20 m 720 0 q 760 180 744 136 q 837 286 783 248 q 906 323 865 305 q 966 356 948 341 q 983 393 983 371 q 962 432 983 422 q 879 441 941 441 q 746 427 829 441 l 730 553 q 935 576 843 576 q 1019 569 983 576 q 1085 546 1055 562 q 1133 497 1116 529 q 1149 420 1149 465 q 1107 288 1149 340 q 979 201 1066 235 q 926 172 941 186 q 906 137 910 157 l 1149 137 l 1149 0 l 720 0 z "},"¾":{"ha":1180,"x_min":46,"x_max":1144,"o":"m 46 418 l 63 544 q 218 529 178 529 q 282 539 263 529 q 300 581 300 550 q 262 627 300 623 q 143 634 208 634 l 129 634 l 129 751 q 262 764 186 752 q 288 777 279 767 q 296 806 296 786 q 280 836 296 828 q 234 844 264 844 q 68 829 184 844 l 52 953 q 242 976 165 976 q 327 969 290 976 q 395 947 363 963 q 446 898 428 930 q 463 817 463 865 q 394 701 463 739 q 454 655 438 682 q 471 585 471 628 q 413 437 471 480 q 240 395 355 395 q 213 395 226 395 q 183 397 199 395 q 158 399 166 399 q 129 404 150 400 q 104 408 109 407 q 74 413 100 408 q 46 418 48 417 m 257 -20 l 827 991 l 986 991 l 416 -20 l 257 -20 m 675 198 q 677 221 675 211 q 690 253 680 232 q 722 300 701 274 l 888 514 q 941 564 918 552 q 998 576 964 576 q 1058 553 1034 576 q 1081 488 1081 530 l 1081 245 l 1144 245 l 1144 119 l 1081 119 l 1081 0 l 921 0 l 921 119 l 773 119 q 697 139 720 119 q 675 198 675 159 m 840 245 l 922 245 l 922 357 l 840 245 z "},"¿":{"ha":768,"x_min":50,"x_max":734,"o":"m 50 59 q 65 176 50 127 q 105 252 81 226 q 160 295 130 278 q 220 319 190 311 q 275 334 250 327 q 316 354 300 341 q 333 389 332 367 l 336 446 l 554 446 l 558 351 q 559 318 559 343 q 545 233 559 267 q 510 186 532 200 q 463 166 489 173 q 411 156 437 159 q 364 144 385 152 q 329 115 342 136 q 315 56 315 93 q 344 -9 315 11 q 444 -29 373 -29 q 690 -5 584 -29 l 734 -210 q 425 -248 587 -248 q 333 -245 373 -248 q 253 -234 294 -242 q 183 -212 212 -226 q 127 -174 154 -197 q 85 -119 101 -151 q 60 -42 69 -87 q 50 59 50 3 m 338 525 q 322 539 338 525 q 307 620 307 553 q 338 715 307 686 q 445 743 369 743 q 552 715 521 743 q 583 620 583 686 q 552 525 583 553 q 445 496 521 496 q 338 525 369 496 z "},"À":{"ha":944,"x_min":9,"x_max":935,"o":"m 9 0 l 286 802 q 363 940 319 899 q 475 981 408 981 q 586 937 540 981 q 663 802 632 893 l 935 0 l 661 0 l 604 201 l 332 201 l 277 0 l 9 0 m 189 1250 l 437 1250 l 574 1063 l 377 1063 l 189 1250 m 387 404 l 547 404 l 465 693 l 387 404 z "},"Á":{"ha":944,"x_min":9,"x_max":935,"o":"m 9 0 l 286 802 q 363 940 319 899 q 475 981 408 981 q 586 937 540 981 q 663 802 632 893 l 935 0 l 661 0 l 604 201 l 332 201 l 277 0 l 9 0 m 378 1055 l 515 1242 l 764 1242 l 574 1055 l 378 1055 m 387 404 l 547 404 l 465 693 l 387 404 z "},"Â":{"ha":944,"x_min":9,"x_max":935,"o":"m 9 0 l 286 802 q 363 940 319 899 q 475 981 408 981 q 586 937 540 981 q 663 802 632 893 l 935 0 l 661 0 l 604 201 l 332 201 l 277 0 l 9 0 m 216 1055 l 408 1242 l 536 1242 l 730 1055 l 551 1055 l 473 1135 l 394 1055 l 216 1055 m 387 404 l 547 404 l 465 693 l 387 404 z "},"Ã":{"ha":944,"x_min":9,"x_max":935,"o":"m 9 0 l 286 802 q 363 940 319 899 q 475 981 408 981 q 586 937 540 981 q 663 802 632 893 l 935 0 l 661 0 l 604 201 l 332 201 l 277 0 l 9 0 m 253 1053 q 300 1197 260 1146 q 391 1249 340 1249 q 446 1236 421 1249 q 483 1210 470 1224 q 510 1183 496 1196 q 532 1171 523 1171 q 573 1244 562 1171 l 691 1244 q 644 1100 684 1151 q 553 1049 604 1049 q 499 1061 524 1049 q 461 1088 475 1074 q 435 1114 448 1102 q 412 1126 422 1126 q 371 1053 382 1126 l 253 1053 m 387 404 l 547 404 l 465 693 l 387 404 z "},"Ä":{"ha":944,"x_min":9,"x_max":935,"o":"m 9 0 l 286 802 q 363 940 319 899 q 475 981 408 981 q 586 937 540 981 q 663 802 632 893 l 935 0 l 661 0 l 604 201 l 332 201 l 277 0 l 9 0 m 244 1068 q 228 1084 244 1068 q 212 1146 212 1099 q 244 1224 212 1193 q 323 1256 276 1256 q 400 1224 370 1256 q 431 1146 431 1193 q 400 1068 431 1099 q 323 1037 370 1037 q 244 1068 276 1037 m 387 404 l 547 404 l 465 693 l 387 404 m 547 1068 q 531 1084 547 1068 q 515 1146 515 1099 q 547 1224 515 1193 q 625 1256 578 1256 q 703 1224 672 1256 q 734 1146 734 1193 q 703 1068 734 1099 q 625 1037 672 1037 q 547 1068 578 1037 z "},"Å":{"ha":944,"x_min":9,"x_max":935,"o":"m 9 0 l 286 802 q 363 940 319 899 q 475 981 408 981 q 586 937 540 981 q 663 802 632 893 l 935 0 l 661 0 l 604 201 l 332 201 l 277 0 l 9 0 m 367 1085 q 345 1107 367 1085 q 323 1191 323 1129 q 367 1296 323 1253 q 473 1339 411 1339 q 578 1296 534 1339 q 622 1191 622 1253 q 578 1085 622 1128 q 473 1041 534 1041 q 367 1085 411 1041 m 387 404 l 547 404 l 465 693 l 387 404 m 428 1236 q 418 1227 428 1236 q 409 1191 409 1217 q 428 1146 409 1164 q 473 1127 446 1127 q 518 1146 499 1127 q 536 1191 536 1164 q 518 1236 536 1217 q 473 1255 499 1255 q 428 1236 446 1255 z "},"Æ":{"ha":1276,"x_min":9,"x_max":1173,"o":"m 9 0 l 290 819 q 332 902 307 869 q 391 951 357 935 q 461 974 425 968 q 545 981 496 981 q 689 954 637 981 q 892 973 752 973 q 1173 966 1045 973 l 1173 759 l 888 759 q 818 742 833 759 q 802 669 802 724 l 802 598 l 1156 598 l 1156 388 l 802 388 l 802 303 q 818 230 802 248 q 888 212 833 212 l 1173 212 l 1173 7 q 892 -3 998 -3 q 821 -2 849 -3 q 754 4 792 -1 q 691 16 716 8 q 639 39 667 24 q 594 76 611 54 q 563 129 576 97 q 545 201 550 161 l 335 201 l 278 0 l 9 0 m 393 404 l 543 404 l 543 724 q 518 763 543 763 q 496 753 504 763 q 483 723 489 744 l 393 404 z "},"Ç":{"ha":792,"x_min":68,"x_max":755,"o":"m 68 486 q 76 643 68 575 q 102 767 84 710 q 151 863 121 824 q 227 928 181 901 q 335 968 273 956 q 479 981 397 981 q 755 945 640 981 l 732 741 q 512 760 623 760 q 448 753 476 760 q 401 734 420 745 q 369 702 382 723 q 348 661 355 681 q 337 609 340 641 q 332 551 333 577 q 331 486 331 526 q 331 434 331 454 q 334 387 332 414 q 339 343 336 359 q 349 306 342 326 q 364 272 355 285 q 387 247 374 260 q 418 227 401 234 q 459 215 436 220 q 512 211 483 211 q 731 231 627 211 l 755 24 q 538 -9 671 -3 l 499 -71 q 572 -107 542 -79 q 602 -174 602 -134 q 576 -246 602 -217 q 513 -286 551 -275 q 429 -298 476 -298 q 300 -263 359 -298 l 331 -180 q 427 -207 385 -207 q 463 -176 463 -207 q 451 -153 463 -162 q 418 -139 438 -144 q 379 -133 397 -135 q 342 -132 361 -132 l 416 -8 q 245 31 313 -1 q 139 126 178 63 q 84 274 100 189 q 68 486 68 359 z "},"È":{"ha":826,"x_min":92,"x_max":722,"o":"m 92 252 l 92 720 q 99 793 92 760 q 115 850 105 826 q 142 894 125 875 q 177 926 160 913 q 221 948 195 939 q 269 962 248 957 q 324 969 291 966 q 381 972 357 972 q 441 973 405 973 q 722 966 594 973 l 722 759 l 437 759 q 367 742 383 759 q 351 669 351 724 l 351 598 l 706 598 l 706 388 l 351 388 l 351 303 q 367 230 351 248 q 437 212 383 212 l 722 212 l 722 7 q 441 -3 547 -3 q 381 -2 406 -3 q 324 1 356 -1 q 269 9 292 4 q 221 23 247 14 q 177 45 195 33 q 142 78 160 58 q 115 122 125 97 q 99 179 105 146 q 92 252 92 212 m 201 1234 l 450 1234 l 587 1048 l 390 1048 l 201 1234 z "},"É":{"ha":826,"x_min":92,"x_max":722,"o":"m 92 252 l 92 720 q 99 793 92 760 q 115 850 105 826 q 142 894 125 875 q 177 926 160 913 q 221 948 195 939 q 269 962 248 957 q 324 969 291 966 q 381 972 357 972 q 441 973 405 973 q 722 966 594 973 l 722 759 l 437 759 q 367 742 383 759 q 351 669 351 724 l 351 598 l 706 598 l 706 388 l 351 388 l 351 303 q 367 230 351 248 q 437 212 383 212 l 722 212 l 722 7 q 441 -3 547 -3 q 381 -2 406 -3 q 324 1 356 -1 q 269 9 292 4 q 221 23 247 14 q 177 45 195 33 q 142 78 160 58 q 115 122 125 97 q 99 179 105 146 q 92 252 92 212 m 302 1048 l 439 1234 l 688 1234 l 499 1048 l 302 1048 z "},"Ê":{"ha":826,"x_min":92,"x_max":722,"o":"m 92 252 l 92 720 q 99 793 92 760 q 115 850 105 826 q 142 894 125 875 q 177 926 160 913 q 221 948 195 939 q 269 962 248 957 q 324 969 291 966 q 381 972 357 972 q 441 973 405 973 q 722 966 594 973 l 722 759 l 437 759 q 367 742 383 759 q 351 669 351 724 l 351 598 l 706 598 l 706 388 l 351 388 l 351 303 q 367 230 351 248 q 437 212 383 212 l 722 212 l 722 7 q 441 -3 547 -3 q 381 -2 406 -3 q 324 1 356 -1 q 269 9 292 4 q 221 23 247 14 q 177 45 195 33 q 142 78 160 58 q 115 122 125 97 q 99 179 105 146 q 92 252 92 212 m 172 1047 l 363 1235 l 491 1235 l 686 1047 l 507 1047 l 429 1128 l 349 1047 l 172 1047 z "},"Ë":{"ha":826,"x_min":92,"x_max":722,"o":"m 92 252 l 92 720 q 99 793 92 760 q 115 850 105 826 q 142 894 125 875 q 177 926 160 913 q 221 948 195 939 q 269 962 248 957 q 324 969 291 966 q 381 972 357 972 q 441 973 405 973 q 722 966 594 973 l 722 759 l 437 759 q 367 742 383 759 q 351 669 351 724 l 351 598 l 706 598 l 706 388 l 351 388 l 351 303 q 367 230 351 248 q 437 212 383 212 l 722 212 l 722 7 q 441 -3 547 -3 q 381 -2 406 -3 q 324 1 356 -1 q 269 9 292 4 q 221 23 247 14 q 177 45 195 33 q 142 78 160 58 q 115 122 125 97 q 99 179 105 146 q 92 252 92 212 m 201 1062 q 185 1077 201 1062 q 170 1140 170 1093 q 201 1218 170 1187 q 280 1249 233 1249 q 358 1218 327 1249 q 389 1140 389 1187 q 358 1062 389 1093 q 280 1030 327 1030 q 201 1062 233 1030 m 504 1062 q 488 1077 504 1062 q 472 1140 472 1093 q 504 1218 472 1187 q 583 1249 536 1249 q 660 1218 629 1249 q 691 1140 691 1187 q 660 1062 691 1093 q 583 1030 629 1030 q 504 1062 536 1030 z "},"Ì":{"ha":450,"x_min":-48,"x_max":355,"o":"m -48 1238 l 201 1238 l 336 1051 l 140 1051 l -48 1238 m 96 0 l 96 971 l 355 971 l 355 0 l 96 0 z "},"Í":{"ha":450,"x_min":96,"x_max":499,"o":"m 96 0 l 96 971 l 355 971 l 355 0 l 96 0 m 114 1051 l 250 1238 l 499 1238 l 310 1051 l 114 1051 z "},"Î":{"ha":450,"x_min":-32,"x_max":483,"o":"m -32 1044 l 160 1232 l 288 1232 l 483 1044 l 303 1044 l 225 1124 l 146 1044 l -32 1044 m 96 0 l 96 971 l 355 971 l 355 0 l 96 0 z "},"Ï":{"ha":450,"x_min":-35,"x_max":486,"o":"m -3 1059 q -19 1074 -3 1059 q -35 1137 -35 1090 q -3 1215 -35 1183 q 75 1246 28 1246 q 153 1215 122 1246 q 184 1137 184 1183 q 153 1059 184 1090 q 75 1027 122 1027 q -3 1059 28 1027 m 96 0 l 96 971 l 355 971 l 355 0 l 96 0 m 299 1059 q 283 1074 299 1059 q 267 1137 267 1090 q 299 1215 267 1183 q 378 1246 331 1246 q 455 1215 425 1246 q 486 1137 486 1183 q 455 1059 486 1090 q 378 1027 425 1027 q 299 1059 331 1027 z "},"Ð":{"ha":954,"x_min":52,"x_max":886,"o":"m 52 421 l 52 577 l 121 577 l 121 949 q 452 981 271 981 q 592 970 531 981 q 699 941 653 960 q 777 889 745 922 q 831 819 810 857 q 864 728 852 781 q 881 617 876 674 q 886 486 886 560 q 881 354 886 411 q 864 243 876 297 q 831 151 852 189 q 777 81 810 113 q 699 30 745 50 q 592 0 653 11 q 452 -10 531 -10 q 121 20 269 -10 l 121 421 l 52 421 m 380 209 q 427 206 405 206 q 486 211 459 206 q 532 223 512 216 q 566 244 551 230 q 591 270 581 258 q 608 304 602 283 q 619 342 615 326 q 624 387 623 359 q 626 434 626 415 q 627 486 627 452 q 626 537 627 519 q 624 584 626 556 q 619 629 623 612 q 608 667 615 645 q 591 701 602 688 q 566 727 581 713 q 532 748 551 741 q 486 760 512 755 q 427 765 459 765 q 380 762 411 765 l 380 577 l 511 577 l 511 421 l 380 421 l 380 209 z "},"Ñ":{"ha":1002,"x_min":98,"x_max":905,"o":"m 98 0 l 98 779 q 250 981 98 981 q 363 942 315 981 q 456 811 411 904 l 670 365 l 670 971 l 905 971 l 905 193 q 751 -10 905 -10 q 637 25 682 -10 q 546 160 593 61 l 332 608 l 332 0 l 98 0 m 286 1052 q 333 1197 293 1145 q 424 1248 373 1248 q 478 1236 454 1248 q 516 1209 503 1223 q 542 1182 529 1194 q 565 1170 555 1170 q 606 1244 595 1170 l 724 1244 q 676 1099 716 1150 q 585 1048 636 1048 q 532 1061 556 1048 q 494 1087 507 1073 q 468 1114 481 1101 q 445 1126 454 1126 q 404 1052 415 1126 l 286 1052 z "},"Ò":{"ha":929,"x_min":68,"x_max":861,"o":"m 86 259 q 77 304 86 259 q 68 486 68 349 q 86 712 68 622 q 151 864 105 802 q 273 954 197 926 q 465 981 349 981 q 656 954 581 981 q 778 864 732 926 q 843 712 824 802 q 861 486 861 622 q 843 259 861 349 q 778 106 824 169 q 656 17 732 44 q 465 -10 581 -10 q 273 17 349 -10 q 151 106 197 44 q 86 259 105 169 m 215 1237 l 464 1237 l 600 1050 l 404 1050 l 215 1237 m 330 486 q 331 432 330 450 q 332 384 331 414 q 335 339 333 354 q 342 302 338 324 q 353 268 347 279 q 370 243 360 257 q 394 223 380 230 q 425 213 407 217 q 465 208 443 208 q 504 213 486 208 q 535 223 522 217 q 559 243 549 230 q 576 268 569 257 q 587 302 583 279 q 594 339 591 324 q 597 384 596 354 q 598 432 598 414 q 599 486 599 450 q 599 534 599 517 q 598 578 599 551 q 595 619 597 605 q 590 655 593 633 q 582 687 587 676 q 569 713 576 699 q 552 735 562 728 q 530 750 543 743 q 501 761 517 758 q 465 764 484 764 q 428 761 445 764 q 399 750 412 758 q 377 735 387 743 q 360 713 367 728 q 348 687 353 699 q 339 655 342 676 q 334 619 336 633 q 331 578 332 605 q 330 534 330 551 q 330 486 330 517 z "},"Ó":{"ha":929,"x_min":68,"x_max":861,"o":"m 86 259 q 77 304 86 259 q 68 486 68 349 q 86 712 68 622 q 151 864 105 802 q 273 954 197 926 q 465 981 349 981 q 656 954 581 981 q 778 864 732 926 q 843 712 824 802 q 861 486 861 622 q 843 259 861 349 q 778 106 824 169 q 656 17 732 44 q 465 -10 581 -10 q 273 17 349 -10 q 151 106 197 44 q 86 259 105 169 m 330 486 q 331 432 330 450 q 332 384 331 414 q 335 339 333 354 q 342 302 338 324 q 353 268 347 279 q 370 243 360 257 q 394 223 380 230 q 425 213 407 217 q 465 208 443 208 q 504 213 486 208 q 535 223 522 217 q 559 243 549 230 q 576 268 569 257 q 587 302 583 279 q 594 339 591 324 q 597 384 596 354 q 598 432 598 414 q 599 486 599 450 q 599 534 599 517 q 598 578 599 551 q 595 619 597 605 q 590 655 593 633 q 582 687 587 676 q 569 713 576 699 q 552 735 562 728 q 530 750 543 743 q 501 761 517 758 q 465 764 484 764 q 428 761 445 764 q 399 750 412 758 q 377 735 387 743 q 360 713 367 728 q 348 687 353 699 q 339 655 342 676 q 334 619 336 633 q 331 578 332 605 q 330 534 330 551 q 330 486 330 517 m 336 1050 l 472 1237 l 720 1237 l 532 1050 l 336 1050 z "},"Ô":{"ha":929,"x_min":68,"x_max":861,"o":"m 86 259 q 77 304 86 259 q 68 486 68 349 q 86 712 68 622 q 151 864 105 802 q 273 954 197 926 q 465 981 349 981 q 656 954 581 981 q 778 864 732 926 q 843 712 824 802 q 861 486 861 622 q 843 259 861 349 q 778 106 824 169 q 656 17 732 44 q 465 -10 581 -10 q 273 17 349 -10 q 151 106 197 44 q 86 259 105 169 m 208 1050 l 399 1238 l 527 1238 l 722 1050 l 543 1050 l 465 1131 l 385 1050 l 208 1050 m 330 486 q 331 432 330 450 q 332 384 331 414 q 335 339 333 354 q 342 302 338 324 q 353 268 347 279 q 370 243 360 257 q 394 223 380 230 q 425 213 407 217 q 465 208 443 208 q 504 213 486 208 q 535 223 522 217 q 559 243 549 230 q 576 268 569 257 q 587 302 583 279 q 594 339 591 324 q 597 384 596 354 q 598 432 598 414 q 599 486 599 450 q 599 534 599 517 q 598 578 599 551 q 595 619 597 605 q 590 655 593 633 q 582 687 587 676 q 569 713 576 699 q 552 735 562 728 q 530 750 543 743 q 501 761 517 758 q 465 764 484 764 q 428 761 445 764 q 399 750 412 758 q 377 735 387 743 q 360 713 367 728 q 348 687 353 699 q 339 655 342 676 q 334 619 336 633 q 331 578 332 605 q 330 534 330 551 q 330 486 330 517 z "},"Õ":{"ha":929,"x_min":68,"x_max":861,"o":"m 86 259 q 77 304 86 259 q 68 486 68 349 q 86 712 68 622 q 151 864 105 802 q 273 954 197 926 q 465 981 349 981 q 656 954 581 981 q 778 864 732 926 q 843 712 824 802 q 861 486 861 622 q 843 259 861 349 q 778 106 824 169 q 656 17 732 44 q 465 -10 581 -10 q 273 17 349 -10 q 151 106 197 44 q 86 259 105 169 m 246 1042 q 294 1186 254 1135 q 385 1237 334 1237 q 439 1225 414 1237 q 476 1198 463 1213 q 502 1172 489 1184 q 525 1160 515 1160 q 566 1234 555 1160 l 684 1234 q 636 1089 676 1140 q 545 1038 596 1038 q 492 1050 516 1038 q 454 1077 467 1062 q 428 1103 441 1091 q 405 1115 414 1115 q 363 1042 375 1115 l 246 1042 m 330 486 q 331 432 330 450 q 332 384 331 414 q 335 339 333 354 q 342 302 338 324 q 353 268 347 279 q 370 243 360 257 q 394 223 380 230 q 425 213 407 217 q 465 208 443 208 q 504 213 486 208 q 535 223 522 217 q 559 243 549 230 q 576 268 569 257 q 587 302 583 279 q 594 339 591 324 q 597 384 596 354 q 598 432 598 414 q 599 486 599 450 q 599 534 599 517 q 598 578 599 551 q 595 619 597 605 q 590 655 593 633 q 582 687 587 676 q 569 713 576 699 q 552 735 562 728 q 530 750 543 743 q 501 761 517 758 q 465 764 484 764 q 428 761 445 764 q 399 750 412 758 q 377 735 387 743 q 360 713 367 728 q 348 687 353 699 q 339 655 342 676 q 334 619 336 633 q 331 578 332 605 q 330 534 330 551 q 330 486 330 517 z "},"Ö":{"ha":929,"x_min":68,"x_max":861,"o":"m 86 259 q 77 304 86 259 q 68 486 68 349 q 86 712 68 622 q 151 864 105 802 q 273 954 197 926 q 465 981 349 981 q 656 954 581 981 q 778 864 732 926 q 843 712 824 802 q 861 486 861 622 q 843 259 861 349 q 778 106 824 169 q 656 17 732 44 q 465 -10 581 -10 q 273 17 349 -10 q 151 106 197 44 q 86 259 105 169 m 237 1056 q 221 1071 237 1056 q 205 1134 205 1087 q 237 1212 205 1181 q 315 1244 269 1244 q 393 1212 362 1244 q 424 1134 424 1181 q 393 1056 424 1087 q 315 1024 362 1024 q 237 1056 269 1024 m 330 486 q 331 432 330 450 q 332 384 331 414 q 335 339 333 354 q 342 302 338 324 q 353 268 347 279 q 370 243 360 257 q 394 223 380 230 q 425 213 407 217 q 465 208 443 208 q 504 213 486 208 q 535 223 522 217 q 559 243 549 230 q 576 268 569 257 q 587 302 583 279 q 594 339 591 324 q 597 384 596 354 q 598 432 598 414 q 599 486 599 450 q 599 534 599 517 q 598 578 599 551 q 595 619 597 605 q 590 655 593 633 q 582 687 587 676 q 569 713 576 699 q 552 735 562 728 q 530 750 543 743 q 501 761 517 758 q 465 764 484 764 q 428 761 445 764 q 399 750 412 758 q 377 735 387 743 q 360 713 367 728 q 348 687 353 699 q 339 655 342 676 q 334 619 336 633 q 331 578 332 605 q 330 534 330 551 q 330 486 330 517 m 539 1056 q 523 1071 539 1056 q 507 1134 507 1087 q 539 1212 507 1181 q 618 1244 571 1244 q 695 1212 665 1244 q 726 1134 726 1181 q 695 1056 726 1087 q 618 1024 665 1024 q 539 1056 571 1024 z "},"×":{"ha":722,"x_min":51,"x_max":671,"o":"m 51 592 l 179 718 l 361 534 l 545 718 l 669 591 l 488 409 l 671 225 l 545 98 l 361 281 l 177 98 l 52 224 l 235 408 l 51 592 z "},"Ø":{"ha":929,"x_min":68,"x_max":861,"o":"m 68 486 q 86 712 68 622 q 151 864 105 802 q 273 954 197 926 q 465 981 349 981 q 627 962 558 981 l 692 1086 l 828 999 l 765 881 q 839 727 817 823 q 861 486 861 631 q 843 259 861 349 q 778 106 824 169 q 656 17 732 44 q 465 -10 581 -10 q 302 8 371 -10 l 237 -115 l 101 -28 l 163 90 q 90 243 112 147 q 68 486 68 340 m 330 486 q 331 406 330 429 l 332 406 l 517 756 q 465 764 494 764 q 428 761 445 764 q 399 750 412 758 q 377 735 387 743 q 360 713 367 728 q 348 687 353 699 q 339 655 342 676 q 334 619 336 633 q 331 578 332 605 q 330 534 330 551 q 330 486 330 517 m 412 216 q 465 208 436 208 q 504 213 486 208 q 535 223 522 217 q 559 243 549 230 q 576 268 569 257 q 587 302 583 279 q 594 339 591 324 q 597 384 596 354 q 598 432 598 414 q 599 486 599 450 q 598 564 599 541 l 597 564 l 412 216 z "},"Ù":{"ha":932,"x_min":91,"x_max":840,"o":"m 91 338 l 91 971 l 347 971 l 347 327 q 372 237 347 262 q 465 212 397 212 q 557 237 532 212 q 583 327 583 262 l 583 971 l 840 971 l 840 338 q 822 196 840 256 q 773 96 804 135 q 694 33 743 57 q 591 -1 646 9 q 465 -10 536 -10 q 310 6 375 -10 q 194 60 245 22 q 117 168 142 98 q 91 338 91 237 m 214 1231 l 462 1231 l 598 1044 l 401 1044 l 214 1231 z "},"Ú":{"ha":932,"x_min":91,"x_max":840,"o":"m 91 338 l 91 971 l 347 971 l 347 327 q 372 237 347 262 q 465 212 397 212 q 557 237 532 212 q 583 327 583 262 l 583 971 l 840 971 l 840 338 q 822 196 840 256 q 773 96 804 135 q 694 33 743 57 q 591 -1 646 9 q 465 -10 536 -10 q 310 6 375 -10 q 194 60 245 22 q 117 168 142 98 q 91 338 91 237 m 340 1044 l 476 1231 l 725 1231 l 536 1044 l 340 1044 z "},"Û":{"ha":932,"x_min":91,"x_max":840,"o":"m 91 338 l 91 971 l 347 971 l 347 327 q 372 237 347 262 q 465 212 397 212 q 557 237 532 212 q 583 327 583 262 l 583 971 l 840 971 l 840 338 q 822 196 840 256 q 773 96 804 135 q 694 33 743 57 q 591 -1 646 9 q 465 -10 536 -10 q 310 6 375 -10 q 194 60 245 22 q 117 168 142 98 q 91 338 91 237 m 214 1044 l 406 1232 l 534 1232 l 729 1044 l 549 1044 l 472 1124 l 392 1044 l 214 1044 z "},"Ü":{"ha":932,"x_min":91,"x_max":840,"o":"m 91 338 l 91 971 l 347 971 l 347 327 q 372 237 347 262 q 465 212 397 212 q 557 237 532 212 q 583 327 583 262 l 583 971 l 840 971 l 840 338 q 822 196 840 256 q 773 96 804 135 q 694 33 743 57 q 591 -1 646 9 q 465 -10 536 -10 q 310 6 375 -10 q 194 60 245 22 q 117 168 142 98 q 91 338 91 237 m 235 1059 q 219 1075 235 1059 q 203 1137 203 1090 q 235 1215 203 1184 q 314 1246 267 1246 q 392 1215 361 1246 q 423 1137 423 1184 q 392 1059 423 1090 q 314 1027 361 1027 q 235 1059 267 1027 m 538 1059 q 523 1075 538 1059 q 507 1137 507 1090 q 538 1215 507 1184 q 616 1246 570 1246 q 694 1215 663 1246 q 726 1137 726 1184 q 694 1059 726 1090 q 616 1027 663 1027 q 538 1059 570 1027 z "},"Ý":{"ha":885,"x_min":-1,"x_max":886,"o":"m -1 971 l 279 971 l 444 634 l 614 971 l 886 971 l 572 372 l 572 0 l 313 0 l 313 372 l -1 971 m 323 1040 l 459 1226 l 708 1226 l 519 1040 l 323 1040 z "},"Þ":{"ha":845,"x_min":79,"x_max":808,"o":"m 79 0 l 79 971 l 338 971 l 338 824 q 409 825 384 825 q 502 822 460 825 q 585 810 543 819 q 660 787 627 802 q 721 749 692 773 q 768 693 749 725 q 797 615 786 661 q 808 513 808 570 q 789 380 808 436 q 737 289 770 323 q 653 233 705 254 q 546 204 602 212 q 417 196 490 196 q 338 199 395 196 l 338 0 l 79 0 m 338 408 q 411 405 362 405 q 517 428 482 405 q 551 513 551 452 q 522 594 551 571 q 414 618 492 618 q 338 613 372 618 l 338 408 z "},"ß":{"ha":939,"x_min":81,"x_max":905,"o":"m 81 0 l 81 645 q 171 948 81 857 q 470 1039 261 1039 q 754 968 661 1039 q 848 781 848 897 q 833 702 848 737 q 795 645 818 667 q 747 605 773 624 q 698 574 720 587 q 661 547 675 562 q 646 516 646 532 q 660 484 646 497 q 697 463 674 471 q 748 446 720 455 q 803 422 775 437 q 854 386 831 408 q 891 326 877 364 q 905 235 905 287 q 884 120 905 169 q 825 44 863 72 q 738 3 787 16 q 629 -10 690 -10 q 504 1 577 -10 q 375 28 430 12 l 398 208 q 597 183 519 183 q 638 195 618 183 q 658 233 658 206 q 644 268 658 254 q 607 290 629 281 q 557 306 585 298 q 502 330 530 315 q 452 366 475 345 q 416 427 430 388 q 401 520 401 467 q 416 592 401 560 q 454 644 431 625 q 502 681 476 663 q 551 712 528 699 q 588 743 573 725 q 603 781 603 760 q 570 822 603 806 q 478 837 536 837 q 361 795 395 837 q 326 645 326 753 l 326 0 l 81 0 z "},"à":{"ha":764,"x_min":48,"x_max":686,"o":"m 48 238 q 99 403 48 342 q 267 483 151 463 q 449 499 332 494 q 429 544 449 532 q 360 556 408 556 q 89 536 244 556 l 69 721 q 372 752 239 752 q 470 745 426 752 q 555 721 514 739 q 625 676 597 704 q 670 605 653 649 q 686 502 686 560 l 686 219 q 680 67 686 135 q 349 -10 555 -10 q 119 50 190 -10 q 48 238 48 111 m 125 1062 l 357 1062 l 485 831 l 301 831 l 125 1062 m 288 241 q 308 194 288 208 q 366 180 328 180 q 444 188 412 180 q 449 288 449 230 l 449 339 q 345 325 378 334 q 300 300 313 317 q 288 241 288 283 z "},"á":{"ha":764,"x_min":48,"x_max":686,"o":"m 48 238 q 99 403 48 342 q 267 483 151 463 q 449 499 332 494 q 429 544 449 532 q 360 556 408 556 q 89 536 244 556 l 69 721 q 372 752 239 752 q 470 745 426 752 q 555 721 514 739 q 625 676 597 704 q 670 605 653 649 q 686 502 686 560 l 686 219 q 680 67 686 135 q 349 -10 555 -10 q 119 50 190 -10 q 48 238 48 111 m 269 830 l 397 1061 l 629 1061 l 453 830 l 269 830 m 288 241 q 308 194 288 208 q 366 180 328 180 q 444 188 412 180 q 449 288 449 230 l 449 339 q 345 325 378 334 q 300 300 313 317 q 288 241 288 283 z "},"â":{"ha":764,"x_min":48,"x_max":686,"o":"m 48 238 q 99 403 48 342 q 267 483 151 463 q 449 499 332 494 q 429 544 449 532 q 360 556 408 556 q 89 536 244 556 l 69 721 q 372 752 239 752 q 470 745 426 752 q 555 721 514 739 q 625 676 597 704 q 670 605 653 649 q 686 502 686 560 l 686 219 q 680 67 686 135 q 349 -10 555 -10 q 119 50 190 -10 q 48 238 48 111 m 145 825 l 325 1057 l 444 1057 l 627 825 l 458 825 l 386 924 l 311 825 l 145 825 m 288 241 q 308 194 288 208 q 366 180 328 180 q 444 188 412 180 q 449 288 449 230 l 449 339 q 345 325 378 334 q 300 300 313 317 q 288 241 288 283 z "},"ã":{"ha":764,"x_min":48,"x_max":686,"o":"m 48 238 q 99 403 48 342 q 267 483 151 463 q 449 499 332 494 q 429 544 449 532 q 360 556 408 556 q 89 536 244 556 l 69 721 q 372 752 239 752 q 470 745 426 752 q 555 721 514 739 q 625 676 597 704 q 670 605 653 649 q 686 502 686 560 l 686 219 q 680 67 686 135 q 349 -10 555 -10 q 119 50 190 -10 q 48 238 48 111 m 165 845 q 212 996 172 943 q 303 1049 252 1049 q 357 1037 333 1049 q 395 1009 382 1024 q 421 981 408 994 q 444 968 435 968 q 485 1045 474 968 l 603 1045 q 555 895 595 947 q 465 842 515 842 q 411 854 435 842 q 373 882 387 867 q 347 909 360 897 q 324 922 334 922 q 283 845 294 922 l 165 845 m 288 241 q 308 194 288 208 q 366 180 328 180 q 444 188 412 180 q 449 288 449 230 l 449 339 q 345 325 378 334 q 300 300 313 317 q 288 241 288 283 z "},"ä":{"ha":764,"x_min":48,"x_max":686,"o":"m 48 238 q 99 403 48 342 q 267 483 151 463 q 449 499 332 494 q 429 544 449 532 q 360 556 408 556 q 89 536 244 556 l 69 721 q 372 752 239 752 q 470 745 426 752 q 555 721 514 739 q 625 676 597 704 q 670 605 653 649 q 686 502 686 560 l 686 219 q 680 67 686 135 q 349 -10 555 -10 q 119 50 190 -10 q 48 238 48 111 m 157 861 q 141 877 157 861 q 125 939 125 892 q 157 1018 125 986 q 235 1049 189 1049 q 313 1018 282 1049 q 344 939 344 986 q 313 861 344 892 q 235 829 282 829 q 157 861 189 829 m 288 241 q 308 194 288 208 q 366 180 328 180 q 444 188 412 180 q 449 288 449 230 l 449 339 q 345 325 378 334 q 300 300 313 317 q 288 241 288 283 m 459 861 q 443 877 459 861 q 427 939 427 892 q 459 1018 427 986 q 538 1049 491 1049 q 615 1018 585 1049 q 646 939 646 986 q 615 861 646 892 q 538 829 585 829 q 459 861 491 829 z "},"å":{"ha":764,"x_min":48,"x_max":686,"o":"m 48 238 q 99 403 48 342 q 267 483 151 463 q 449 499 332 494 q 429 544 449 532 q 360 556 408 556 q 89 536 244 556 l 69 721 q 372 752 239 752 q 470 745 426 752 q 555 721 514 739 q 625 676 597 704 q 670 605 653 649 q 686 502 686 560 l 686 219 q 680 67 686 135 q 349 -10 555 -10 q 119 50 190 -10 q 48 238 48 111 m 274 857 q 252 879 274 857 q 231 962 231 901 q 274 1068 231 1024 q 380 1112 318 1112 q 485 1068 441 1112 q 529 962 529 1024 q 486 857 529 901 q 380 813 442 813 q 274 857 318 813 m 288 241 q 308 194 288 208 q 366 180 328 180 q 444 188 412 180 q 449 288 449 230 l 449 339 q 345 325 378 334 q 300 300 313 317 q 288 241 288 283 m 335 1007 q 325 998 335 1007 q 316 962 316 989 q 335 917 316 936 q 380 899 353 899 q 425 917 406 899 q 444 962 444 936 q 425 1007 444 989 q 380 1026 406 1026 q 335 1007 353 1026 z "},"æ":{"ha":1177,"x_min":48,"x_max":1119,"o":"m 48 238 q 99 403 48 342 q 267 483 151 463 q 449 499 332 494 q 429 544 449 532 q 360 556 408 556 q 89 536 244 556 l 69 721 q 372 752 239 752 q 581 709 506 752 q 787 752 656 752 q 908 741 856 752 q 997 705 961 729 q 1058 651 1034 682 q 1095 575 1082 620 q 1114 483 1108 530 q 1119 374 1119 436 q 1116 305 1119 351 q 794 268 984 279 l 691 262 q 721 204 693 220 q 817 189 749 189 q 1087 209 924 189 l 1107 22 q 773 -10 924 -10 q 596 27 665 -10 q 349 -10 494 -10 q 119 50 190 -10 q 48 238 48 111 m 288 241 q 308 194 288 208 q 366 180 328 180 q 444 188 412 180 q 449 288 449 230 l 449 339 q 345 325 378 334 q 300 300 313 317 q 288 241 288 283 m 684 430 l 762 434 q 874 444 836 438 q 876 462 876 455 q 855 536 876 511 q 787 560 834 560 q 732 551 754 560 q 701 523 711 542 q 687 483 690 503 q 684 430 684 462 z "},"ç":{"ha":664,"x_min":59,"x_max":616,"o":"m 59 377 q 67 510 59 454 q 97 613 75 566 q 157 690 119 661 q 253 736 194 720 q 394 752 312 752 q 615 718 516 752 l 595 541 q 448 562 494 562 q 373 553 401 562 q 329 521 345 545 q 309 465 313 497 q 304 377 304 433 q 304 325 304 345 q 308 282 305 305 q 317 246 311 259 q 334 220 323 233 q 360 200 345 207 q 398 190 376 194 q 450 186 420 186 q 596 207 501 186 l 616 23 q 453 -5 545 2 l 410 -72 q 484 -107 454 -80 q 513 -174 513 -134 q 488 -246 513 -217 q 425 -287 463 -275 q 340 -298 388 -298 q 212 -263 272 -298 l 243 -180 q 338 -207 295 -207 q 374 -176 374 -207 q 362 -153 374 -162 q 329 -139 349 -144 q 291 -133 309 -135 q 254 -132 273 -132 l 327 -9 q 209 17 259 -7 q 131 76 159 41 q 86 163 103 111 q 64 265 69 216 q 59 377 59 314 z "},"è":{"ha":783,"x_min":54,"x_max":725,"o":"m 54 371 q 131 664 54 576 q 394 752 207 752 q 515 741 463 752 q 604 705 568 729 q 664 651 640 682 q 701 575 688 620 q 720 483 714 530 q 725 374 725 436 q 722 305 725 351 q 400 268 590 279 l 297 262 q 327 204 299 220 q 422 189 355 189 q 693 209 530 189 l 713 22 q 380 -10 530 -10 q 247 9 304 -10 q 154 60 190 28 q 95 142 117 93 q 63 247 72 191 q 54 371 54 302 m 170 1062 l 403 1062 l 530 831 l 347 831 l 170 1062 m 290 430 l 368 434 q 480 444 441 438 q 481 462 481 455 q 461 536 481 512 q 394 560 441 560 q 339 551 361 560 q 307 523 317 542 q 294 483 297 503 q 290 430 290 462 z "},"é":{"ha":783,"x_min":54,"x_max":725,"o":"m 54 371 q 131 664 54 576 q 394 752 207 752 q 515 741 463 752 q 604 705 568 729 q 664 651 640 682 q 701 575 688 620 q 720 483 714 530 q 725 374 725 436 q 722 305 725 351 q 400 268 590 279 l 297 262 q 327 204 299 220 q 422 189 355 189 q 693 209 530 189 l 713 22 q 380 -10 530 -10 q 247 9 304 -10 q 154 60 190 28 q 95 142 117 93 q 63 247 72 191 q 54 371 54 302 m 290 430 l 368 434 q 480 444 441 438 q 481 462 481 455 q 461 536 481 512 q 394 560 441 560 q 339 551 361 560 q 307 523 317 542 q 294 483 297 503 q 290 430 290 462 m 296 828 l 423 1059 l 656 1059 l 479 828 l 296 828 z "},"ê":{"ha":783,"x_min":54,"x_max":725,"o":"m 54 371 q 131 664 54 576 q 394 752 207 752 q 515 741 463 752 q 604 705 568 729 q 664 651 640 682 q 701 575 688 620 q 720 483 714 530 q 725 374 725 436 q 722 305 725 351 q 400 268 590 279 l 297 262 q 327 204 299 220 q 422 189 355 189 q 693 209 530 189 l 713 22 q 380 -10 530 -10 q 247 9 304 -10 q 154 60 190 28 q 95 142 117 93 q 63 247 72 191 q 54 371 54 302 m 163 825 l 342 1057 l 461 1057 l 644 825 l 475 825 l 403 924 l 328 825 l 163 825 m 290 430 l 368 434 q 480 444 441 438 q 481 462 481 455 q 461 536 481 512 q 394 560 441 560 q 339 551 361 560 q 307 523 317 542 q 294 483 297 503 q 290 430 290 462 z "},"ë":{"ha":783,"x_min":54,"x_max":725,"o":"m 54 371 q 131 664 54 576 q 394 752 207 752 q 515 741 463 752 q 604 705 568 729 q 664 651 640 682 q 701 575 688 620 q 720 483 714 530 q 725 374 725 436 q 722 305 725 351 q 400 268 590 279 l 297 262 q 327 204 299 220 q 422 189 355 189 q 693 209 530 189 l 713 22 q 380 -10 530 -10 q 247 9 304 -10 q 154 60 190 28 q 95 142 117 93 q 63 247 72 191 q 54 371 54 302 m 181 861 q 165 877 181 861 q 149 939 149 892 q 181 1018 149 986 q 260 1049 213 1049 q 337 1018 307 1049 q 368 939 368 986 q 337 861 368 892 q 260 829 307 829 q 181 861 213 829 m 290 430 l 368 434 q 480 444 441 438 q 481 462 481 455 q 461 536 481 512 q 394 560 441 560 q 339 551 361 560 q 307 523 317 542 q 294 483 297 503 q 290 430 290 462 m 484 861 q 468 877 484 861 q 452 939 452 892 q 484 1018 452 986 q 562 1049 515 1049 q 640 1018 609 1049 q 671 939 671 986 q 640 861 671 892 q 562 829 609 829 q 484 861 515 829 z "},"ì":{"ha":425,"x_min":-47,"x_max":336,"o":"m -47 1072 l 186 1072 l 313 841 l 130 841 l -47 1072 m 90 0 l 90 742 l 336 742 l 336 0 l 90 0 z "},"í":{"ha":425,"x_min":90,"x_max":472,"o":"m 90 0 l 90 742 l 336 742 l 336 0 l 90 0 m 112 841 l 239 1072 l 472 1072 l 296 841 l 112 841 z "},"î":{"ha":425,"x_min":-28,"x_max":454,"o":"m -28 845 l 152 1076 l 271 1076 l 454 845 l 286 845 l 213 944 l 138 845 l -28 845 m 90 0 l 90 742 l 336 742 l 336 0 l 90 0 z "},"ï":{"ha":425,"x_min":-48,"x_max":474,"o":"m -16 867 q -32 883 -16 867 q -48 945 -48 899 q -16 1024 -48 992 q 62 1055 16 1055 q 140 1024 109 1055 q 172 945 172 992 q 140 867 172 899 q 62 836 109 836 q -16 867 16 836 m 90 0 l 90 742 l 336 742 l 336 0 l 90 0 m 286 867 q 270 883 286 867 q 254 945 254 899 q 286 1024 254 992 q 365 1055 318 1055 q 443 1024 412 1055 q 474 945 474 992 q 443 867 474 899 q 365 836 412 836 q 286 867 318 836 z "},"ð":{"ha":784,"x_min":52,"x_max":726,"o":"m 52 371 q 127 652 52 568 q 387 736 203 735 q 423 732 408 736 q 378 806 408 764 l 264 764 l 197 871 l 295 906 q 235 967 268 935 l 454 1039 q 507 984 480 1015 l 624 1027 l 691 922 l 586 882 q 726 371 726 664 q 650 77 726 163 q 389 -10 574 -10 q 127 76 203 -10 q 52 371 52 163 m 295 371 q 313 226 295 261 q 389 191 330 191 q 465 226 448 191 q 483 371 483 261 q 465 502 483 469 q 389 536 446 536 q 313 503 331 536 q 295 371 295 469 z "},"ñ":{"ha":804,"x_min":79,"x_max":726,"o":"m 79 0 l 79 524 q 85 675 79 607 q 411 752 211 752 q 517 745 470 752 q 596 726 564 738 q 653 693 629 713 q 690 651 676 673 q 712 597 705 629 q 723 535 720 566 q 726 465 726 505 l 726 0 l 484 0 l 484 449 q 466 530 484 507 q 394 553 448 552 q 326 545 357 553 q 321 445 321 503 l 321 0 l 79 0 m 190 849 q 237 1000 197 947 q 328 1053 277 1053 q 382 1041 358 1053 q 420 1013 407 1028 q 446 985 433 998 q 469 972 459 972 q 509 1049 498 972 l 627 1049 q 580 899 620 951 q 489 846 540 846 q 435 858 460 846 q 398 886 411 871 q 371 913 385 901 q 349 926 358 926 q 307 849 319 926 l 190 849 z "},"ò":{"ha":783,"x_min":54,"x_max":729,"o":"m 54 371 q 131 665 54 578 q 392 752 207 752 q 653 665 577 752 q 729 371 729 578 q 653 76 729 163 q 392 -10 577 -10 q 131 77 207 -10 q 54 371 54 163 m 158 1062 l 391 1062 l 518 831 l 334 831 l 158 1062 m 298 371 q 316 226 298 261 q 392 191 334 191 q 468 226 450 191 q 486 371 486 261 q 468 516 486 480 q 392 552 450 552 q 316 516 334 552 q 298 371 298 480 z "},"ó":{"ha":783,"x_min":54,"x_max":729,"o":"m 54 371 q 131 665 54 578 q 392 752 207 752 q 653 665 577 752 q 729 371 729 578 q 653 76 729 163 q 392 -10 577 -10 q 131 77 207 -10 q 54 371 54 163 m 271 837 l 399 1067 l 631 1067 l 455 837 l 271 837 m 298 371 q 316 226 298 261 q 392 191 334 191 q 468 226 450 191 q 486 371 486 261 q 468 516 486 480 q 392 552 450 552 q 316 516 334 552 q 298 371 298 480 z "},"ô":{"ha":783,"x_min":54,"x_max":729,"o":"m 54 371 q 131 665 54 578 q 392 752 207 752 q 653 665 577 752 q 729 371 729 578 q 653 76 729 163 q 392 -10 577 -10 q 131 77 207 -10 q 54 371 54 163 m 152 829 l 331 1061 l 450 1061 l 633 829 l 465 829 l 393 929 l 318 829 l 152 829 m 316 516 q 307 498 316 516 q 298 371 298 480 q 316 226 298 261 q 392 191 334 191 q 468 226 450 191 q 486 371 486 261 q 468 516 486 480 q 392 552 450 552 q 316 516 334 552 z "},"õ":{"ha":783,"x_min":54,"x_max":729,"o":"m 54 371 q 131 665 54 578 q 392 752 207 752 q 653 665 577 752 q 729 371 729 578 q 653 76 729 163 q 392 -10 577 -10 q 131 77 207 -10 q 54 371 54 163 m 173 841 q 220 991 180 939 q 311 1044 260 1044 q 366 1032 341 1044 q 403 1004 390 1019 q 430 977 416 989 q 452 964 443 964 q 493 1041 482 964 l 611 1041 q 564 890 604 943 q 473 837 524 837 q 419 849 444 837 q 381 877 395 862 q 355 905 368 892 q 332 918 342 918 q 291 841 302 918 l 173 841 m 298 371 q 316 226 298 261 q 392 191 334 191 q 468 226 450 191 q 486 371 486 261 q 468 516 486 480 q 392 552 450 552 q 316 516 334 552 q 298 371 298 480 z "},"ö":{"ha":783,"x_min":54,"x_max":729,"o":"m 54 371 q 131 665 54 578 q 392 752 207 752 q 653 665 577 752 q 729 371 729 578 q 653 76 729 163 q 392 -10 577 -10 q 131 77 207 -10 q 54 371 54 163 m 163 861 q 148 877 163 861 q 132 939 132 892 q 163 1018 132 986 q 242 1049 195 1049 q 320 1018 289 1049 q 351 939 351 986 q 320 861 351 892 q 242 829 289 829 q 163 861 195 829 m 298 371 q 316 226 298 261 q 392 191 334 191 q 468 226 450 191 q 486 371 486 261 q 468 516 486 480 q 392 552 450 552 q 316 516 334 552 q 298 371 298 480 m 466 861 q 450 877 466 861 q 434 939 434 892 q 466 1018 434 986 q 545 1049 498 1049 q 622 1018 591 1049 q 653 939 653 986 q 622 861 653 892 q 545 829 591 829 q 466 861 498 829 z "},"÷":{"ha":791,"x_min":51,"x_max":741,"o":"m 51 313 l 51 503 l 741 503 l 741 313 l 51 313 m 311 46 q 293 64 311 46 q 275 132 275 81 q 310 217 275 182 q 395 252 345 252 q 481 217 446 252 q 516 132 516 182 q 481 46 516 81 q 395 12 446 12 q 311 46 346 12 m 310 598 q 293 616 310 598 q 275 684 275 633 q 311 769 275 734 q 395 804 346 804 q 481 769 446 804 q 516 684 516 734 q 481 598 516 633 q 395 564 446 564 q 310 598 345 564 z "},"ø":{"ha":783,"x_min":54,"x_max":729,"o":"m 54 371 q 131 665 54 578 q 392 752 207 752 q 534 736 477 752 l 592 840 l 680 786 l 627 690 q 705 570 681 648 q 729 371 729 492 q 653 76 729 163 q 392 -10 577 -10 q 249 6 310 -10 l 192 -97 l 103 -44 l 156 52 q 78 172 102 95 q 54 371 54 250 m 298 371 q 299 312 298 343 l 300 312 l 431 547 q 392 552 416 552 q 316 516 334 552 q 298 371 298 480 m 353 195 q 392 191 368 191 q 468 226 450 191 q 486 371 486 261 q 484 430 486 414 l 484 431 l 353 195 z "},"ù":{"ha":801,"x_min":76,"x_max":720,"o":"m 76 277 l 76 742 l 319 742 l 319 293 q 337 212 319 235 q 407 189 355 189 q 473 197 442 189 q 477 297 477 239 l 477 742 l 720 742 l 720 219 q 713 67 720 135 q 389 -10 588 -10 q 284 -3 330 -10 q 205 16 238 4 q 149 49 172 28 q 111 91 125 69 q 89 145 97 113 q 79 207 81 176 q 76 277 76 237 m 154 1072 l 387 1072 l 514 841 l 330 841 l 154 1072 z "},"ú":{"ha":801,"x_min":76,"x_max":720,"o":"m 76 277 l 76 742 l 319 742 l 319 293 q 337 212 319 235 q 407 189 355 189 q 473 197 442 189 q 477 297 477 239 l 477 742 l 720 742 l 720 219 q 713 67 720 135 q 389 -10 588 -10 q 284 -3 330 -10 q 205 16 238 4 q 149 49 172 28 q 111 91 125 69 q 89 145 97 113 q 79 207 81 176 q 76 277 76 237 m 288 849 l 416 1080 l 648 1080 l 472 849 l 288 849 z "},"û":{"ha":801,"x_min":76,"x_max":720,"o":"m 76 277 l 76 742 l 319 742 l 319 293 q 337 212 319 235 q 407 189 355 189 q 473 197 442 189 q 477 297 477 239 l 477 742 l 720 742 l 720 219 q 713 67 720 135 q 389 -10 588 -10 q 284 -3 330 -10 q 205 16 238 4 q 149 49 172 28 q 111 91 125 69 q 89 145 97 113 q 79 207 81 176 q 76 277 76 237 m 158 853 l 338 1084 l 456 1084 l 640 853 l 471 853 l 399 952 l 324 853 l 158 853 z "},"ü":{"ha":801,"x_min":76,"x_max":720,"o":"m 76 277 l 76 742 l 319 742 l 319 293 q 337 212 319 235 q 407 189 355 189 q 473 197 442 189 q 477 297 477 239 l 477 742 l 720 742 l 720 219 q 713 67 720 135 q 389 -10 588 -10 q 284 -3 330 -10 q 205 16 238 4 q 149 49 172 28 q 111 91 125 69 q 89 145 97 113 q 79 207 81 176 q 76 277 76 237 m 169 876 q 153 892 169 876 q 137 954 137 907 q 169 1033 137 1001 q 248 1064 201 1064 q 325 1033 294 1064 q 356 954 356 1001 q 325 876 356 907 q 248 845 294 845 q 169 876 201 845 m 471 876 q 455 892 471 876 q 439 954 439 907 q 471 1033 439 1001 q 550 1064 503 1064 q 628 1033 597 1064 q 659 954 659 1001 q 628 876 659 907 q 550 845 597 845 q 471 876 503 845 z "},"ý":{"ha":806,"x_min":8,"x_max":779,"o":"m 8 742 l 268 742 l 414 369 l 529 742 l 779 742 l 434 -273 l 183 -273 l 304 57 l 8 742 m 296 833 l 423 1063 l 656 1063 l 479 833 l 296 833 z "},"þ":{"ha":822,"x_min":73,"x_max":756,"o":"m 73 -273 l 73 971 l 317 971 l 317 746 q 414 752 363 752 q 566 733 504 752 q 672 671 628 715 q 736 553 715 627 q 756 371 756 479 q 736 189 756 262 q 672 71 715 115 q 566 8 628 27 q 414 -10 504 -10 q 317 -4 363 -10 l 317 -273 l 73 -273 m 317 194 q 374 188 343 188 q 439 198 412 188 q 479 222 465 208 q 501 263 494 236 q 510 312 509 290 q 512 371 512 334 q 511 420 512 401 q 506 464 510 439 q 493 502 502 488 q 469 529 484 516 q 430 549 454 543 q 374 555 406 555 q 317 549 343 555 l 317 194 z "},"ÿ":{"ha":806,"x_min":8,"x_max":779,"o":"m 8 742 l 268 742 l 414 369 l 529 742 l 779 742 l 434 -273 l 183 -273 l 304 57 l 8 742 m 178 864 q 162 879 178 864 q 146 942 146 895 q 178 1020 146 989 q 256 1051 210 1051 q 334 1020 303 1051 q 365 942 365 989 q 334 864 365 895 q 256 832 303 832 q 178 864 210 832 m 480 864 q 464 879 480 864 q 448 942 448 895 q 480 1020 448 989 q 559 1051 512 1051 q 636 1020 606 1051 q 667 942 667 989 q 636 864 667 895 q 559 832 606 832 q 480 864 512 832 z "},"Œ":{"ha":1333,"x_min":68,"x_max":1229,"o":"m 86 259 q 77 304 86 259 q 68 486 68 349 q 86 712 68 622 q 151 864 105 802 q 273 954 197 926 q 465 981 349 981 q 698 935 614 981 q 800 966 742 959 q 948 973 859 973 q 1229 966 1101 973 l 1229 759 l 944 759 q 873 742 890 759 q 857 669 857 724 l 857 598 l 1212 598 l 1212 388 l 857 388 l 857 303 q 873 230 857 248 q 944 212 890 212 l 1229 212 l 1229 7 q 948 -3 1054 -3 q 802 5 861 -3 q 699 37 743 12 q 465 -10 612 -10 q 273 17 349 -10 q 151 106 197 44 q 86 259 105 169 m 330 486 q 331 432 330 450 q 332 384 331 414 q 335 339 333 354 q 342 302 338 324 q 353 268 347 279 q 370 243 360 257 q 394 223 380 230 q 425 213 407 217 q 465 208 443 208 q 504 213 486 208 q 535 223 522 217 q 559 243 549 230 q 576 268 569 257 q 587 302 583 279 q 594 339 591 324 q 597 384 596 354 q 598 432 598 414 q 599 486 599 450 q 599 534 599 517 q 598 578 599 551 q 595 619 597 605 q 590 655 593 633 q 582 687 587 676 q 569 713 576 699 q 552 735 562 728 q 530 750 543 743 q 501 761 517 758 q 465 764 484 764 q 428 761 445 764 q 399 750 412 758 q 377 735 387 743 q 360 713 367 728 q 348 687 353 699 q 339 655 342 676 q 334 619 336 633 q 331 578 332 605 q 330 534 330 551 q 330 486 330 517 z "},"œ":{"ha":1215,"x_min":54,"x_max":1156,"o":"m 54 371 q 131 665 54 578 q 392 752 207 752 q 608 703 533 752 q 825 752 685 752 q 946 741 894 752 q 1035 705 999 729 q 1095 651 1072 682 q 1132 575 1119 620 q 1151 483 1145 530 q 1156 374 1156 436 q 1154 305 1156 351 q 831 268 1021 279 l 728 262 q 758 204 730 220 q 854 189 786 189 q 1124 209 962 189 l 1145 22 q 811 -10 962 -10 q 611 41 686 -10 q 392 -10 536 -10 q 131 77 207 -10 q 54 371 54 163 m 298 371 q 316 226 298 261 q 392 191 334 191 q 468 226 450 191 q 486 371 486 261 q 468 516 486 480 q 392 552 450 552 q 316 516 334 552 q 298 371 298 480 m 722 430 l 800 434 q 911 444 873 438 q 913 462 913 455 q 892 536 913 512 q 825 560 872 560 q 770 551 792 560 q 739 523 749 542 q 725 483 728 503 q 722 430 722 462 z "},"Ÿ":{"ha":885,"x_min":-1,"x_max":886,"o":"m -1 971 l 279 971 l 444 634 l 614 971 l 886 971 l 572 372 l 572 0 l 313 0 l 313 372 l -1 971 m 222 1055 q 206 1070 222 1055 q 190 1133 190 1086 q 222 1211 190 1179 q 300 1242 254 1242 q 378 1211 347 1242 q 409 1133 409 1179 q 378 1055 409 1086 q 300 1023 347 1023 q 222 1055 254 1023 m 524 1055 q 508 1070 524 1055 q 492 1133 492 1086 q 524 1211 492 1179 q 603 1242 556 1242 q 681 1211 650 1242 q 712 1133 712 1179 q 681 1055 712 1086 q 603 1023 650 1023 q 524 1055 556 1023 z "},"ˆ":{"ha":539,"x_min":29,"x_max":510,"o":"m 29 778 l 208 1009 l 328 1009 l 510 778 l 342 778 l 270 877 l 195 778 l 29 778 z "},"˜":{"ha":531,"x_min":47,"x_max":485,"o":"m 47 789 q 94 939 54 886 q 185 992 134 992 q 239 980 215 992 q 277 952 264 967 q 303 924 290 937 q 326 911 317 911 q 367 989 356 911 l 485 989 q 437 838 477 891 q 347 785 397 785 q 293 797 317 785 q 255 825 269 810 q 229 853 242 840 q 206 865 216 865 q 165 789 176 865 l 47 789 z "}," ":{"ha":669,"x_min":0,"x_max":0,"o":""}," ":{"ha":1339,"x_min":0,"x_max":0,"o":""}," ":{"ha":669,"x_min":0,"x_max":0,"o":""}," ":{"ha":1339,"x_min":0,"x_max":0,"o":""}," ":{"ha":446,"x_min":0,"x_max":0,"o":""}," ":{"ha":334,"x_min":0,"x_max":0,"o":""}," ":{"ha":223,"x_min":0,"x_max":0,"o":""}," ":{"ha":223,"x_min":0,"x_max":0,"o":""}," ":{"ha":167,"x_min":0,"x_max":0,"o":""}," ":{"ha":268,"x_min":0,"x_max":0,"o":""}," ":{"ha":74,"x_min":0,"x_max":0,"o":""},"‐":{"ha":545,"x_min":83,"x_max":463,"o":"m 83 278 l 83 460 l 463 460 l 463 278 l 83 278 z "},"‑":{"ha":545,"x_min":83,"x_max":463,"o":"m 83 278 l 83 460 l 463 460 l 463 278 l 83 278 z "},"‒":{"ha":545,"x_min":83,"x_max":463,"o":"m 83 278 l 83 460 l 463 460 l 463 278 l 83 278 z "},"–":{"ha":834,"x_min":83,"x_max":752,"o":"m 83 281 l 83 456 l 752 456 l 752 281 l 83 281 z "},"—":{"ha":1482,"x_min":83,"x_max":1399,"o":"m 83 281 l 83 456 l 1399 456 l 1399 281 l 83 281 z "},"‘":{"ha":389,"x_min":41,"x_max":378,"o":"m 41 631 l 197 1029 l 378 1029 l 290 631 l 41 631 z "},"’":{"ha":389,"x_min":41,"x_max":378,"o":"m 41 631 l 130 1029 l 378 1029 l 222 631 l 41 631 z "},"‚":{"ha":414,"x_min":26,"x_max":363,"o":"m 26 -168 l 115 230 l 363 230 l 207 -168 l 26 -168 z "},"“":{"ha":716,"x_min":41,"x_max":705,"o":"m 41 631 l 197 1029 l 378 1029 l 290 631 l 41 631 m 369 631 l 524 1029 l 705 1029 l 616 631 l 369 631 z "},"”":{"ha":716,"x_min":41,"x_max":705,"o":"m 41 631 l 130 1029 l 378 1029 l 222 631 l 41 631 m 369 631 l 456 1029 l 705 1029 l 549 631 l 369 631 z "},"„":{"ha":740,"x_min":26,"x_max":689,"o":"m 26 -168 l 115 230 l 362 230 l 207 -168 l 26 -168 m 353 -168 l 441 230 l 689 230 l 534 -168 l 353 -168 z "},"•":{"ha":494,"x_min":54,"x_max":441,"o":"m 110 329 q 82 357 110 329 q 54 467 54 386 q 110 604 54 547 q 248 661 167 661 q 385 604 328 661 q 441 467 441 547 q 385 329 441 386 q 248 272 328 272 q 110 329 167 272 z "},"…":{"ha":1291,"x_min":62,"x_max":1229,"o":"m 92 18 q 77 32 92 18 q 62 121 62 46 q 92 223 62 195 q 201 250 121 250 q 310 223 281 250 q 340 121 340 195 q 311 18 340 46 q 201 -10 281 -10 q 92 18 121 -10 m 536 18 q 522 32 536 18 q 507 121 507 46 q 536 223 507 195 q 646 250 566 250 q 755 222 725 250 q 785 121 785 195 q 755 18 785 46 q 646 -10 726 -10 q 536 18 566 -10 m 981 18 q 966 32 981 18 q 951 121 951 46 q 981 223 951 195 q 1090 250 1010 250 q 1199 222 1169 250 q 1229 121 1229 195 q 1199 18 1229 46 q 1090 -10 1170 -10 q 981 18 1010 -10 z "}," ":{"ha":268,"x_min":0,"x_max":0,"o":""},"‹":{"ha":500,"x_min":32,"x_max":454,"o":"m 32 359 l 239 652 l 454 652 l 267 359 l 454 66 l 239 66 l 32 359 z "},"›":{"ha":500,"x_min":45,"x_max":468,"o":"m 45 66 l 234 359 l 45 652 l 261 652 l 468 359 l 261 66 l 45 66 z "}," ":{"ha":334,"x_min":0,"x_max":0,"o":""},"€":{"ha":755,"x_min":45,"x_max":701,"o":"m 45 320 l 71 443 l 132 443 l 132 499 l 54 499 l 81 623 l 138 623 q 231 874 155 797 q 477 951 308 951 q 701 917 610 951 l 682 719 q 512 737 594 737 q 423 708 453 737 q 382 623 393 679 l 640 623 l 613 499 l 373 499 l 373 443 l 601 443 l 574 320 l 381 320 q 421 234 391 263 q 512 205 452 205 q 682 223 604 205 l 701 23 q 477 -10 613 -10 q 231 67 308 -10 q 138 320 155 145 l 45 320 z "},"™":{"ha":1310,"x_min":35,"x_max":1215,"o":"m 35 848 l 35 971 l 505 971 l 505 848 l 339 848 l 339 389 l 201 389 l 201 848 l 35 848 m 585 389 l 585 971 l 764 971 l 902 620 l 1038 971 l 1215 971 l 1215 389 l 1076 389 l 1076 720 l 1076 720 l 945 389 l 854 389 l 725 720 l 724 720 l 724 389 l 585 389 z "},"◼":{"ha":741,"x_min":0,"x_max":742,"o":"m 0 0 l 0 742 l 742 742 l 742 0 l 0 0 z "},"ﬁ":{"ha":989,"x_min":39,"x_max":915,"o":"m 39 549 l 39 742 l 155 742 l 155 793 q 219 975 155 911 q 412 1039 283 1039 q 561 1028 481 1039 l 542 857 l 479 857 q 416 841 433 857 q 398 786 398 825 l 398 742 l 901 742 l 901 0 l 654 0 l 654 549 l 398 549 l 398 0 l 155 0 l 155 549 l 39 549 m 670 821 q 654 835 670 821 q 639 916 639 849 q 670 1010 639 982 q 777 1039 701 1039 q 884 1010 852 1039 q 915 916 915 982 q 884 821 915 849 q 777 792 852 792 q 670 821 701 792 z "},"ﬂ":{"ha":987,"x_min":39,"x_max":940,"o":"m 39 549 l 39 742 l 155 742 l 155 793 q 219 975 155 911 q 412 1039 283 1039 q 893 1029 652 1039 l 893 210 q 904 129 893 163 q 940 56 914 95 l 720 -45 q 649 182 649 39 l 649 857 l 479 857 q 416 841 433 857 q 398 786 398 825 l 398 742 l 541 742 l 541 549 l 398 549 l 398 0 l 155 0 l 155 549 l 39 549 z "},"ﬃ":{"ha":1503,"x_min":39,"x_max":1428,"o":"m 39 549 l 39 742 l 155 742 l 155 793 q 219 975 155 911 q 412 1039 283 1039 q 561 1028 481 1039 l 542 857 l 479 857 q 416 841 433 857 q 398 786 398 825 l 398 742 l 668 742 l 668 793 q 732 975 668 911 q 924 1039 796 1039 q 1074 1028 994 1039 l 1055 857 l 991 857 q 929 841 947 857 q 911 786 911 825 l 911 742 l 1413 742 l 1413 0 l 1167 0 l 1167 549 l 911 549 l 911 0 l 668 0 l 668 549 l 398 549 l 398 0 l 155 0 l 155 549 l 39 549 m 1182 821 q 1167 835 1182 821 q 1152 916 1152 849 q 1182 1010 1152 982 q 1290 1039 1213 1039 q 1397 1010 1366 1039 q 1428 916 1428 982 q 1397 821 1428 849 q 1290 792 1366 792 q 1182 821 1213 792 z "},"ﬄ":{"ha":1500,"x_min":39,"x_max":1453,"o":"m 39 549 l 39 742 l 155 742 l 155 793 q 219 975 155 911 q 412 1039 283 1039 q 561 1028 481 1039 l 542 857 l 479 857 q 416 841 433 857 q 398 786 398 825 l 398 742 l 668 742 l 668 793 q 732 975 668 911 q 924 1039 796 1039 q 1407 1029 1165 1039 l 1407 210 q 1417 129 1407 163 q 1453 56 1427 95 l 1233 -45 q 1179 52 1197 -2 q 1162 182 1162 105 l 1162 857 l 991 857 q 929 841 947 857 q 911 786 911 825 l 911 742 l 1053 742 l 1053 549 l 911 549 l 911 0 l 668 0 l 668 549 l 398 549 l 398 0 l 155 0 l 155 549 l 39 549 z "}}}
